{"glyphs":{"0":{"ha":833,"x_min":164,"x_max":669,"o":"m 669 730 l 669 241 q 596 61 669 136 q 421 -14 524 -14 l 411 -14 q 235 61 307 -14 q 164 243 164 136 l 164 730 q 236 912 164 838 q 411 986 307 986 l 421 986 q 597 911 524 986 q 669 730 669 836 m 554 240 l 554 729 q 514 833 554 790 q 416 876 473 876 q 318 833 358 876 q 278 729 278 790 l 278 241 q 318 138 278 180 q 416 96 358 96 q 514 137 473 96 q 554 240 554 179 z "},"1":{"ha":833,"x_min":150,"x_max":682,"o":"m 150 0 l 150 107 l 357 107 l 357 863 l 168 833 l 168 943 l 350 972 l 473 972 l 473 107 l 682 107 l 682 0 l 150 0 z "},"2":{"ha":833,"x_min":150,"x_max":684,"o":"m 278 708 l 161 708 q 238 907 161 827 q 425 986 315 986 q 609 913 534 986 q 684 729 684 840 q 619 545 684 618 q 470 400 554 471 q 326 268 386 329 q 267 110 267 208 l 684 110 l 684 0 l 150 0 l 150 102 q 193 270 150 193 q 297 401 236 347 q 463 541 358 456 q 567 741 567 625 q 525 837 567 798 q 422 876 482 876 q 320 827 361 876 q 278 708 278 779 z "},"3":{"ha":833,"x_min":151,"x_max":681,"o":"m 204 863 l 204 972 l 657 972 l 657 869 l 492 654 q 624 583 567 645 q 681 437 681 521 l 681 243 q 605 61 681 136 q 421 -14 529 -14 l 411 -14 q 227 61 302 -14 q 151 241 151 135 l 151 269 l 268 269 l 268 240 q 311 137 268 179 q 416 96 354 96 q 520 138 477 96 q 564 241 564 180 l 564 436 q 532 513 564 481 q 454 546 500 546 l 350 546 l 350 650 l 509 863 l 204 863 z "},"4":{"ha":833,"x_min":138,"x_max":694,"o":"m 138 205 l 138 314 l 449 972 l 574 972 l 271 318 l 497 318 l 497 568 l 614 568 l 614 318 l 694 318 l 694 205 l 614 205 l 614 0 l 497 0 l 497 205 l 138 205 z "},"5":{"ha":833,"x_min":153,"x_max":681,"o":"m 153 241 l 153 269 l 269 269 l 269 240 q 312 137 269 179 q 417 96 355 96 q 521 138 479 96 q 564 241 564 180 l 564 400 q 521 504 564 461 q 418 546 478 546 l 408 546 q 335 523 367 546 q 290 472 302 500 l 183 504 l 224 972 l 647 972 l 647 860 l 335 860 l 311 631 q 412 656 357 656 l 421 656 q 605 582 530 656 q 681 401 681 507 l 681 243 q 605 61 681 136 q 421 -14 529 -14 l 412 -14 q 228 60 304 -14 q 153 241 153 134 z "},"6":{"ha":833,"x_min":153,"x_max":681,"o":"m 268 728 l 268 596 q 411 656 328 656 l 421 656 q 605 582 530 656 q 681 401 681 507 l 681 243 q 605 61 681 136 q 421 -14 529 -14 l 411 -14 q 228 61 302 -14 q 153 241 153 135 l 153 729 q 226 911 153 836 q 407 986 300 986 l 414 986 q 596 911 522 986 q 671 728 671 836 l 553 728 q 512 832 553 790 q 411 875 472 875 q 309 832 350 875 q 268 728 268 789 m 408 546 q 312 502 355 546 q 268 400 268 458 l 268 240 q 311 137 268 179 q 416 96 354 96 q 520 138 477 96 q 564 241 564 180 l 564 400 q 521 504 564 461 q 416 546 478 546 l 408 546 z "},"7":{"ha":833,"x_min":174,"x_max":660,"o":"m 443 0 l 323 0 q 377 328 323 143 q 486 663 431 513 q 543 863 541 812 l 174 863 l 174 972 l 660 972 l 660 871 q 586 586 660 789 q 477 243 511 382 q 443 0 443 104 z "},"8":{"ha":833,"x_min":153,"x_max":681,"o":"m 668 743 l 668 692 q 581 505 668 576 q 681 301 680 427 l 681 241 q 606 60 681 134 q 424 -14 532 -14 l 411 -14 q 228 61 302 -14 q 153 243 153 136 l 153 301 q 254 505 153 426 q 164 693 164 573 l 164 743 q 236 916 164 845 q 410 986 307 986 l 422 986 q 597 916 526 986 q 668 743 668 845 m 564 240 l 564 300 q 521 404 564 361 q 417 447 478 447 q 312 404 355 447 q 269 300 269 361 l 269 241 q 313 138 269 180 q 418 96 357 96 q 521 137 479 96 q 564 240 564 179 m 551 690 l 551 737 q 512 836 551 795 q 415 876 472 876 q 319 836 358 876 q 281 737 281 796 l 281 692 q 317 597 281 637 q 411 557 354 557 l 424 557 q 514 595 477 557 q 551 690 551 633 z "},"9":{"ha":833,"x_min":153,"x_max":681,"o":"m 566 244 l 566 376 q 422 317 506 317 l 412 317 q 228 391 304 317 q 153 571 153 465 l 153 729 q 229 911 153 836 q 412 986 304 986 l 422 986 q 606 912 531 986 q 681 730 681 838 l 681 243 q 607 61 681 136 q 427 -14 533 -14 l 419 -14 q 237 61 311 -14 q 163 244 163 136 l 281 244 q 321 139 281 182 q 422 97 361 97 q 524 140 483 97 q 566 244 566 183 m 425 427 q 522 470 478 427 q 566 572 566 514 l 566 732 q 523 834 566 793 q 418 876 480 876 q 312 834 355 876 q 269 730 269 791 l 269 572 q 312 469 269 511 q 416 427 355 427 l 425 427 z "}," ":{"ha":833,"x_min":0,"x_max":0,"o":""},"!":{"ha":833,"x_min":349,"x_max":485,"o":"m 349 0 l 349 136 l 485 136 l 485 0 l 349 0 m 472 972 l 472 229 l 359 229 l 359 972 l 472 972 z "},"\"":{"ha":833,"x_min":277,"x_max":557,"o":"m 277 644 l 277 972 l 375 972 l 375 644 l 277 644 m 458 644 l 458 972 l 557 972 l 557 644 l 458 644 z "},"#":{"ha":833,"x_min":92,"x_max":741,"o":"m 696 371 l 696 267 l 568 267 l 530 0 l 424 0 l 460 267 l 313 267 l 275 0 l 170 0 l 207 267 l 92 267 l 92 371 l 222 371 l 253 590 l 136 590 l 136 694 l 268 694 l 307 972 l 412 972 l 372 694 l 521 694 l 561 972 l 669 972 l 629 694 l 741 694 l 741 590 l 615 590 l 583 371 l 696 371 m 326 371 l 475 371 l 505 590 l 358 590 l 326 371 z "},"$":{"ha":833,"x_min":151,"x_max":682,"o":"m 361 -66 l 361 1 q 210 84 268 14 q 151 253 151 155 l 151 294 l 267 294 l 267 253 q 307 150 267 192 q 408 107 347 107 l 425 107 q 525 146 485 107 q 566 248 566 186 q 524 358 566 311 q 423 435 482 406 q 306 495 364 464 q 206 583 248 526 q 164 725 164 639 q 220 881 164 811 q 361 970 275 950 l 361 1039 l 471 1039 l 471 970 q 616 881 561 951 q 672 705 672 811 l 555 705 q 518 820 555 776 q 419 864 480 864 q 320 825 358 864 q 282 730 282 786 q 323 636 282 675 q 423 569 364 597 q 541 506 482 541 q 641 408 600 472 q 682 250 682 345 q 623 85 682 156 q 471 1 564 14 l 471 -66 l 361 -66 z "},"%":{"ha":833,"x_min":69,"x_max":764,"o":"m 439 840 l 439 714 q 393 611 439 653 q 283 570 347 570 l 273 570 q 164 612 211 570 q 118 714 118 654 l 118 840 q 164 944 118 901 q 273 986 210 986 l 283 986 q 393 944 347 986 q 439 840 439 901 m 351 714 l 351 840 q 330 889 351 869 q 278 909 309 909 q 227 889 248 909 q 205 840 205 869 l 205 714 q 227 665 205 685 q 279 644 249 644 q 330 665 309 644 q 351 714 351 685 m 69 389 l 764 657 l 764 581 l 69 310 l 69 389 m 715 257 l 715 131 q 670 28 715 70 q 559 -14 624 -14 l 550 -14 q 441 28 488 -14 q 395 131 395 71 l 395 257 q 440 360 395 318 q 550 403 486 403 l 559 403 q 669 360 623 403 q 715 257 715 318 m 628 131 l 628 257 q 606 306 628 286 q 554 326 585 326 q 503 306 524 326 q 482 257 482 286 l 482 131 q 504 81 482 102 q 555 61 525 61 q 606 81 585 61 q 628 131 628 102 z "},"&":{"ha":833,"x_min":140,"x_max":692,"o":"m 616 972 l 616 863 l 297 863 l 297 852 l 522 336 l 572 201 l 576 240 l 576 456 l 692 456 l 692 241 q 633 81 692 143 l 669 0 l 543 0 l 534 20 q 408 -14 472 -14 l 400 -14 q 216 61 292 -14 q 140 243 140 136 l 140 441 q 174 560 140 508 q 264 639 208 612 l 182 823 l 182 972 l 616 972 m 300 138 q 322 117 300 138 q 405 96 343 96 q 493 113 467 96 l 309 536 q 257 440 257 502 l 257 241 q 300 138 257 180 z "},"'":{"ha":833,"x_min":367,"x_max":467,"o":"m 367 633 l 367 961 l 467 961 l 467 633 l 367 633 z "},"(":{"ha":833,"x_min":279,"x_max":553,"o":"m 553 -154 l 553 -264 q 359 -189 439 -264 q 279 -7 279 -114 l 279 732 q 359 912 279 838 q 553 987 439 987 l 553 875 q 440 833 485 875 q 395 730 395 791 l 395 -8 q 440 -112 395 -71 q 553 -154 485 -154 z "},")":{"ha":833,"x_min":279,"x_max":554,"o":"m 279 -264 l 279 -154 q 392 -112 347 -154 q 436 -8 436 -71 l 436 730 q 392 834 436 793 q 279 875 347 875 l 279 987 q 474 912 393 987 q 554 732 554 838 l 554 -7 q 474 -188 554 -113 q 279 -264 393 -264 z "},"*":{"ha":833,"x_min":240,"x_max":593,"o":"m 370 971 l 464 971 l 464 871 l 566 903 l 593 818 l 490 781 l 554 697 l 478 643 l 416 724 l 363 643 l 285 694 l 342 779 l 240 808 l 268 897 l 370 868 l 370 971 z "},"+":{"ha":833,"x_min":100,"x_max":732,"o":"m 358 717 l 473 717 l 473 465 l 732 465 l 732 353 l 473 353 l 473 98 l 358 98 l 358 353 l 100 353 l 100 465 l 358 465 l 358 717 z "},",":{"ha":833,"x_min":347,"x_max":486,"o":"m 350 0 l 350 136 l 486 136 l 486 9 l 428 -163 l 347 -163 l 395 0 l 350 0 z "},"-":{"ha":833,"x_min":248,"x_max":586,"o":"m 586 461 l 586 353 l 248 353 l 248 461 l 586 461 z "},".":{"ha":833,"x_min":349,"x_max":485,"o":"m 349 0 l 349 136 l 485 136 l 485 0 l 349 0 z "},"/":{"ha":833,"x_min":126,"x_max":707,"o":"m 126 -250 l 590 972 l 707 972 l 241 -250 l 126 -250 z "},":":{"ha":833,"x_min":349,"x_max":485,"o":"m 349 0 l 349 136 l 485 136 l 485 0 l 349 0 m 349 558 l 349 694 l 485 694 l 485 558 l 349 558 z "},";":{"ha":833,"x_min":347,"x_max":486,"o":"m 350 558 l 350 694 l 486 694 l 486 558 l 350 558 m 350 0 l 350 136 l 486 136 l 486 9 l 428 -163 l 347 -163 l 395 0 l 350 0 z "},"<":{"ha":833,"x_min":129,"x_max":704,"o":"m 129 354 l 129 456 l 704 715 l 704 596 l 268 404 l 704 214 l 704 93 l 129 354 z "},"=":{"ha":833,"x_min":109,"x_max":724,"o":"m 724 340 l 724 232 l 109 232 l 109 340 l 724 340 m 724 579 l 724 471 l 109 471 l 109 579 l 724 579 z "},">":{"ha":833,"x_min":129,"x_max":704,"o":"m 704 456 l 704 354 l 129 93 l 129 214 l 566 404 l 129 596 l 129 715 l 704 456 z "},"?":{"ha":833,"x_min":154,"x_max":677,"o":"m 269 722 l 154 722 q 230 913 154 842 q 416 985 305 985 q 603 914 528 985 q 677 723 677 844 q 622 547 677 602 q 511 434 567 492 q 454 229 454 376 l 339 229 q 362 388 339 321 q 417 494 385 456 q 504 587 449 532 q 558 737 558 642 q 516 834 558 795 q 413 872 475 872 q 310 831 351 872 q 269 722 269 790 m 326 0 l 326 138 l 467 138 l 467 0 l 326 0 z "},"@":{"ha":833,"x_min":97,"x_max":734,"o":"m 410 494 l 410 199 q 441 121 410 154 q 519 87 473 87 q 599 120 566 87 q 632 199 632 153 l 632 494 q 599 571 632 539 q 521 603 566 603 q 443 571 476 603 q 410 494 410 539 m 517 703 q 632 654 579 703 q 575 816 631 750 q 432 882 519 882 l 411 882 q 259 812 322 882 q 196 647 196 742 l 196 97 q 254 -67 196 3 q 399 -136 313 -136 l 424 -136 l 424 -240 l 403 -240 q 184 -141 271 -240 q 97 97 97 -41 l 97 647 q 188 887 97 787 q 411 986 279 986 l 432 986 q 649 890 563 986 q 734 654 734 794 l 734 0 l 636 0 l 636 37 q 517 -11 583 -12 q 368 47 428 -11 q 307 193 307 104 l 307 497 q 368 643 307 583 q 517 703 428 703 z "},"A":{"ha":833,"x_min":149,"x_max":684,"o":"m 684 0 l 566 0 l 566 310 l 265 310 l 265 0 l 149 0 l 149 415 l 317 972 l 515 972 l 684 412 l 684 0 m 562 418 l 429 863 l 403 863 l 271 418 l 562 418 z "},"B":{"ha":833,"x_min":170,"x_max":663,"o":"m 424 972 q 588 909 522 972 q 653 755 653 846 l 653 679 q 574 514 653 586 q 663 334 663 442 l 663 233 q 590 67 663 134 q 419 0 518 0 l 170 0 l 170 972 l 424 972 m 427 860 l 286 860 l 286 564 l 427 564 q 507 596 474 564 q 541 673 541 628 l 541 751 q 507 828 541 796 q 427 860 474 860 m 286 458 l 286 110 l 419 110 q 510 146 473 110 q 546 233 546 183 l 546 334 q 513 417 546 375 q 419 458 481 458 l 286 458 z "},"C":{"ha":833,"x_min":150,"x_max":684,"o":"m 684 269 l 684 241 q 607 60 684 134 q 421 -14 530 -14 l 414 -14 q 227 61 304 -14 q 150 243 150 136 l 150 730 q 227 912 150 838 q 414 986 304 986 l 421 986 q 607 911 531 986 q 684 729 684 836 l 567 729 q 523 831 567 789 q 416 873 479 873 q 311 832 354 873 q 268 729 268 790 l 268 241 q 311 138 268 180 q 416 96 354 96 q 523 138 479 96 q 567 240 567 180 l 567 269 l 684 269 z "},"D":{"ha":833,"x_min":157,"x_max":676,"o":"m 676 717 l 676 256 q 600 74 676 149 q 414 0 524 0 l 157 0 l 157 972 l 414 972 q 600 898 524 972 q 676 717 676 824 m 558 254 l 558 715 q 515 818 558 777 q 410 860 472 860 l 273 860 l 273 110 l 410 110 q 515 152 472 110 q 558 254 558 193 z "},"E":{"ha":833,"x_min":174,"x_max":660,"o":"m 174 972 l 648 972 l 648 863 l 290 863 l 290 567 l 615 567 l 615 458 l 290 458 l 290 110 l 660 110 l 660 0 l 174 0 l 174 972 z "},"F":{"ha":833,"x_min":179,"x_max":654,"o":"m 179 972 l 654 972 l 654 863 l 296 863 l 296 567 l 621 567 l 621 458 l 296 458 l 296 0 l 179 0 l 179 972 z "},"G":{"ha":833,"x_min":140,"x_max":692,"o":"m 692 500 l 692 241 q 615 61 692 136 q 428 -14 538 -14 l 404 -14 q 217 61 294 -14 q 140 243 140 136 l 140 730 q 217 912 140 838 q 404 986 294 986 l 428 986 q 615 911 538 986 q 692 729 692 836 l 572 729 q 530 832 572 790 q 424 873 488 873 l 408 873 q 301 832 345 873 q 258 729 258 790 l 258 241 q 301 138 258 180 q 408 96 345 96 l 424 96 q 530 137 488 96 q 572 240 572 179 l 572 390 l 431 390 l 431 500 l 692 500 z "},"H":{"ha":833,"x_min":149,"x_max":684,"o":"m 566 972 l 684 972 l 684 0 l 566 0 l 566 458 l 265 458 l 265 0 l 149 0 l 149 972 l 265 972 l 265 567 l 566 567 l 566 972 z "},"I":{"ha":833,"x_min":149,"x_max":685,"o":"m 149 864 l 149 972 l 685 972 l 685 864 l 475 864 l 475 109 l 685 109 l 685 0 l 149 0 l 149 109 l 358 109 l 358 864 l 149 864 z "},"J":{"ha":833,"x_min":150,"x_max":684,"o":"m 205 865 l 205 974 l 684 974 l 684 243 q 606 61 684 136 q 419 -14 529 -14 l 412 -14 q 226 61 302 -14 q 150 241 150 135 l 150 317 l 267 317 l 267 240 q 310 138 267 180 q 416 96 354 96 q 522 138 479 96 q 566 241 566 180 l 566 865 l 205 865 z "},"K":{"ha":833,"x_min":127,"x_max":705,"o":"m 690 972 l 380 511 l 705 0 l 571 0 l 245 515 l 554 972 l 690 972 m 245 972 l 245 0 l 127 0 l 127 972 l 245 972 z "},"L":{"ha":833,"x_min":176,"x_max":657,"o":"m 176 972 l 294 972 l 294 110 l 657 110 l 657 0 l 176 0 l 176 972 z "},"M":{"ha":833,"x_min":134,"x_max":700,"o":"m 700 972 l 700 0 l 582 0 l 582 708 l 586 774 l 581 775 l 561 710 l 471 460 l 363 460 l 272 708 l 253 775 l 248 774 l 252 708 l 252 0 l 134 0 l 134 972 l 282 972 l 414 578 l 419 578 l 551 972 l 700 972 z "},"N":{"ha":833,"x_min":149,"x_max":684,"o":"m 567 972 l 684 972 l 684 0 l 553 0 l 289 677 l 262 762 l 257 762 l 265 671 l 265 0 l 149 0 l 149 972 l 279 972 l 545 290 l 570 207 l 575 207 l 567 296 l 567 972 z "},"O":{"ha":833,"x_min":140,"x_max":692,"o":"m 692 730 l 692 241 q 615 61 692 136 q 428 -14 538 -14 l 404 -14 q 217 61 294 -14 q 140 243 140 136 l 140 730 q 217 912 140 838 q 404 986 294 986 l 428 986 q 615 911 538 986 q 692 730 692 836 m 572 240 l 572 729 q 530 832 572 790 q 424 873 488 873 l 408 873 q 301 832 345 873 q 258 729 258 790 l 258 241 q 301 138 258 180 q 408 96 345 96 l 424 96 q 530 137 488 96 q 572 240 572 179 z "},"P":{"ha":833,"x_min":172,"x_max":660,"o":"m 172 0 l 172 972 l 437 972 q 595 909 530 972 q 660 755 660 846 l 660 555 q 595 401 660 464 q 437 338 530 338 l 289 338 l 289 0 l 172 0 m 542 551 l 542 754 q 510 829 542 799 q 432 860 478 860 l 289 860 l 289 447 l 432 447 q 510 478 478 447 q 542 551 542 509 z "},"Q":{"ha":833,"x_min":127,"x_max":704,"o":"m 679 730 l 679 241 q 640 110 679 168 l 704 40 l 624 -33 l 564 31 q 415 -14 497 -14 l 392 -14 q 205 61 282 -14 q 127 243 127 136 l 127 730 q 205 912 127 838 q 392 986 282 986 l 415 986 q 602 911 525 986 q 679 730 679 836 m 559 240 l 559 729 q 517 832 559 790 q 411 873 475 873 l 396 873 q 289 832 332 873 q 245 729 245 790 l 245 241 q 248 218 245 224 q 395 288 309 288 q 554 204 480 288 q 559 240 559 216 m 302 126 q 397 94 345 94 q 488 115 450 94 q 388 183 438 183 q 302 126 338 183 z "},"R":{"ha":833,"x_min":157,"x_max":676,"o":"m 273 354 l 273 0 l 157 0 l 157 972 l 422 972 q 580 909 515 972 q 644 755 644 846 l 644 571 q 611 452 644 505 q 518 374 578 400 l 676 0 l 550 0 l 399 354 l 273 354 m 526 567 l 526 754 q 494 828 526 797 q 418 860 463 860 l 273 860 l 273 463 l 418 463 q 494 493 463 463 q 526 567 526 524 z "},"S":{"ha":833,"x_min":140,"x_max":692,"o":"m 681 728 l 566 728 q 524 830 566 786 q 419 873 481 873 q 314 835 357 873 q 272 740 272 796 q 315 643 272 684 q 420 570 358 602 q 544 502 482 539 q 649 399 606 465 q 692 235 692 334 q 615 61 692 136 q 429 -14 538 -14 l 404 -14 q 217 61 294 -14 q 140 241 140 135 l 140 279 l 258 279 l 258 241 q 301 138 258 180 q 408 96 345 96 l 424 96 q 529 135 486 96 q 572 238 572 175 q 529 351 572 301 q 425 431 486 400 q 302 496 364 463 q 197 589 240 530 q 154 732 154 648 q 231 913 154 840 q 418 986 309 986 q 604 911 528 986 q 681 728 681 836 z "},"T":{"ha":833,"x_min":150,"x_max":684,"o":"m 150 861 l 150 972 l 684 972 l 684 861 l 476 861 l 476 0 l 355 0 l 355 861 l 150 861 z "},"U":{"ha":833,"x_min":140,"x_max":692,"o":"m 572 972 l 692 972 l 692 241 q 615 61 692 136 q 428 -14 538 -14 l 404 -14 q 217 61 294 -14 q 140 243 140 136 l 140 972 l 258 972 l 258 241 q 301 138 258 180 q 408 96 345 96 l 424 96 q 530 137 488 96 q 572 240 572 179 l 572 972 z "},"V":{"ha":833,"x_min":149,"x_max":684,"o":"m 265 972 l 265 571 l 403 110 l 429 110 l 566 571 l 566 972 l 684 972 l 684 559 l 515 0 l 317 0 l 149 557 l 149 972 l 265 972 z "},"W":{"ha":833,"x_min":122,"x_max":710,"o":"m 590 972 l 710 972 l 710 558 l 654 0 l 458 0 l 424 343 l 407 343 l 374 0 l 176 0 l 122 558 l 122 972 l 240 972 l 240 568 l 272 113 l 294 113 l 335 476 l 496 476 l 534 113 l 557 113 l 590 568 l 590 972 z "},"X":{"ha":833,"x_min":107,"x_max":725,"o":"m 254 972 l 415 628 l 578 972 l 705 972 l 479 505 l 725 0 l 597 0 l 415 382 l 235 0 l 107 0 l 351 505 l 125 972 l 254 972 z "},"Y":{"ha":833,"x_min":103,"x_max":730,"o":"m 476 0 l 355 0 l 355 460 l 103 972 l 232 972 l 416 607 l 600 972 l 730 972 l 476 460 l 476 0 z "},"Z":{"ha":833,"x_min":147,"x_max":685,"o":"m 684 110 l 684 0 l 147 0 l 147 117 l 546 863 l 168 863 l 168 972 l 685 972 l 685 856 l 285 110 l 684 110 z "},"[":{"ha":833,"x_min":279,"x_max":553,"o":"m 553 -139 l 553 -249 l 279 -249 l 279 972 l 553 972 l 553 860 l 395 860 l 395 -139 l 553 -139 z "},"\\":{"ha":833,"x_min":121,"x_max":711,"o":"m 236 972 l 711 -250 l 595 -250 l 121 972 l 236 972 z "},"]":{"ha":833,"x_min":279,"x_max":553,"o":"m 279 -249 l 279 -139 l 437 -139 l 437 860 l 279 860 l 279 972 l 553 972 l 553 -249 l 279 -249 z "},"^":{"ha":833,"x_min":174,"x_max":660,"o":"m 370 971 l 464 971 l 660 458 l 557 458 l 414 825 l 277 458 l 174 458 l 370 971 z "},"_":{"ha":833,"x_min":1,"x_max":832,"o":"m 1 -104 l 832 -104 l 832 -197 l 1 -197 l 1 -104 z "},"`":{"ha":833,"x_min":249,"x_max":583,"o":"m 583 781 l 460 781 l 249 986 l 407 986 l 583 781 z "},"a":{"ha":833,"x_min":150,"x_max":682,"o":"m 574 0 l 574 57 q 506 8 554 31 q 415 -14 458 -14 l 389 -14 q 222 49 294 -14 q 150 202 150 111 q 217 356 150 293 q 379 427 283 419 l 570 439 l 570 475 q 532 567 570 528 q 439 607 494 607 l 425 607 q 338 578 378 607 q 292 505 298 550 l 182 505 q 263 650 191 591 q 429 708 335 708 l 443 708 q 617 644 553 708 q 682 484 682 579 l 682 0 l 574 0 m 395 86 l 415 86 q 523 129 476 86 q 570 218 570 172 l 570 339 l 387 326 q 297 288 333 322 q 261 205 261 254 q 302 121 261 155 q 395 86 343 86 z "},"b":{"ha":833,"x_min":142,"x_max":692,"o":"m 142 0 l 142 972 l 249 972 l 249 644 q 411 710 318 709 l 428 710 q 615 635 538 710 q 692 454 692 559 l 692 241 q 615 61 692 136 q 428 -14 538 -14 l 408 -14 q 245 49 309 -14 l 245 0 l 142 0 m 578 235 l 578 458 q 533 565 578 521 q 424 608 489 608 l 408 608 q 298 565 343 608 q 253 458 253 521 l 253 236 q 298 129 253 174 q 408 85 343 85 l 424 85 q 533 129 489 85 q 578 235 578 172 z "},"c":{"ha":833,"x_min":144,"x_max":689,"o":"m 682 463 l 568 463 q 530 566 568 524 q 428 608 492 608 l 412 608 q 302 565 347 608 q 257 458 257 521 l 257 236 q 302 129 257 174 q 412 85 347 85 l 421 85 q 531 128 486 85 q 575 231 575 171 l 689 231 q 611 59 689 132 q 425 -14 533 -14 l 408 -14 q 221 61 298 -14 q 144 243 144 136 l 144 454 q 221 636 144 562 q 408 710 298 710 l 432 710 q 611 638 541 710 q 682 463 682 567 z "},"d":{"ha":833,"x_min":142,"x_max":692,"o":"m 692 972 l 692 0 l 587 0 l 587 49 q 425 -14 525 -14 l 406 -14 q 219 61 296 -14 q 142 241 142 136 l 142 454 q 219 635 142 560 q 406 710 296 710 l 422 710 q 585 644 515 710 l 585 972 l 692 972 m 256 458 l 256 235 q 300 129 256 172 q 410 85 345 85 l 425 85 q 535 129 490 85 q 581 236 581 174 l 581 458 q 535 565 581 521 q 425 608 490 608 l 410 608 q 300 565 345 608 q 256 458 256 521 z "},"e":{"ha":833,"x_min":143,"x_max":690,"o":"m 567 212 l 681 212 q 608 57 681 127 q 431 -14 534 -14 l 407 -14 q 220 61 297 -14 q 143 243 143 136 l 143 454 q 220 635 143 562 q 407 708 297 708 l 432 708 q 616 634 542 708 q 690 454 690 561 l 690 313 l 256 313 l 256 236 q 301 129 256 174 q 411 85 346 85 l 427 85 q 527 125 488 85 q 567 212 567 166 m 256 458 l 256 414 l 581 414 l 581 458 q 537 565 581 521 q 428 608 493 608 l 411 608 q 301 565 346 608 q 256 458 256 521 z "},"f":{"ha":833,"x_min":129,"x_max":703,"o":"m 397 0 l 283 0 l 283 595 l 129 595 l 129 694 l 283 694 l 283 751 q 353 917 283 847 q 522 986 422 986 l 539 986 q 630 974 589 986 q 686 950 671 962 l 703 939 l 642 856 q 534 885 610 885 l 526 885 q 435 847 472 885 q 397 755 397 808 l 397 694 l 657 694 l 657 595 l 397 595 l 397 0 z "},"g":{"ha":833,"x_min":87,"x_max":746,"o":"m 257 83 l 293 83 l 293 222 q 213 286 253 238 q 172 407 172 334 l 172 498 q 240 646 172 585 q 400 708 307 708 q 509 681 461 708 l 553 737 q 692 778 582 777 l 692 677 q 615 663 625 677 l 582 616 q 625 498 625 569 l 625 407 q 556 259 625 323 q 400 195 488 195 l 400 83 l 576 83 q 696 36 646 83 q 746 -79 746 -12 l 746 -89 q 696 -203 746 -157 q 575 -250 646 -250 l 257 -250 q 137 -203 186 -250 q 87 -89 87 -157 l 87 -79 q 137 35 87 -13 q 257 83 186 83 m 562 -7 l 272 -7 q 213 -30 237 -7 q 189 -85 189 -53 q 213 -139 189 -117 q 272 -161 237 -161 l 561 -161 q 620 -138 595 -161 q 644 -83 644 -115 q 621 -29 644 -52 q 562 -7 597 -7 m 515 407 l 515 497 q 481 576 515 545 q 399 608 448 608 q 315 576 350 608 q 281 497 281 545 l 281 407 q 315 328 281 359 q 398 296 350 296 q 481 328 446 296 q 515 407 515 361 z "},"h":{"ha":833,"x_min":142,"x_max":690,"o":"m 690 0 l 578 0 l 578 458 q 534 565 578 522 q 424 608 490 608 q 305 563 357 608 q 253 465 253 518 l 253 0 l 142 0 l 142 972 l 253 972 l 253 640 q 433 708 323 708 q 617 634 543 708 q 690 454 690 561 l 690 0 z "},"i":{"ha":833,"x_min":136,"x_max":696,"o":"m 136 595 l 136 694 l 484 694 l 484 100 l 696 100 l 696 0 l 136 0 l 136 100 l 372 100 l 372 595 l 136 595 m 358 848 l 358 972 l 486 972 l 486 848 l 358 848 z "},"j":{"ha":833,"x_min":179,"x_max":629,"o":"m 504 848 l 504 972 l 629 972 l 629 848 l 504 848 m 509 -33 l 509 593 l 179 593 l 179 694 l 623 694 l 623 -29 q 553 -194 623 -125 q 383 -264 484 -264 l 367 -264 q 276 -252 317 -264 q 220 -228 235 -240 l 203 -216 l 264 -134 q 371 -163 296 -163 l 379 -163 q 471 -124 433 -163 q 509 -33 509 -86 z "},"k":{"ha":833,"x_min":131,"x_max":701,"o":"m 131 0 l 131 972 l 241 972 l 241 0 l 131 0 m 559 0 l 241 367 l 545 694 l 686 694 l 376 366 l 701 0 l 559 0 z "},"l":{"ha":833,"x_min":143,"x_max":690,"o":"m 182 872 l 182 972 l 468 972 l 468 100 l 690 100 l 690 0 l 143 0 l 143 100 l 357 100 l 357 872 l 182 872 z "},"m":{"ha":833,"x_min":92,"x_max":742,"o":"m 473 0 l 366 0 l 366 533 q 345 586 366 564 q 288 608 325 608 q 227 575 252 608 q 203 493 203 542 l 203 0 l 92 0 l 92 694 l 200 694 l 200 643 q 317 705 243 705 q 378 692 353 705 q 414 666 404 679 q 436 628 424 653 q 574 705 492 705 q 699 653 656 705 q 742 521 742 602 l 742 0 l 629 0 l 629 533 q 608 585 629 562 q 553 608 587 608 q 496 576 519 608 q 473 493 473 543 l 473 0 z "},"n":{"ha":833,"x_min":142,"x_max":690,"o":"m 690 0 l 578 0 l 578 458 q 534 565 578 522 q 424 608 490 608 q 305 563 357 608 q 253 465 253 518 l 253 0 l 142 0 l 142 694 l 250 694 l 250 637 q 432 708 321 708 q 617 634 543 708 q 690 454 690 561 l 690 0 z "},"o":{"ha":833,"x_min":140,"x_max":692,"o":"m 692 454 l 692 241 q 615 61 692 136 q 428 -14 538 -14 l 404 -14 q 217 61 294 -14 q 140 243 140 136 l 140 454 q 217 636 140 562 q 404 710 294 710 l 428 710 q 615 635 538 710 q 692 454 692 560 m 578 235 l 578 458 q 533 565 578 521 q 424 608 489 608 l 408 608 q 298 565 343 608 q 253 458 253 521 l 253 236 q 298 129 253 174 q 408 85 343 85 l 424 85 q 533 129 489 85 q 578 235 578 172 z "},"p":{"ha":833,"x_min":142,"x_max":692,"o":"m 142 -250 l 142 694 l 245 694 l 245 646 q 408 708 308 708 l 428 708 q 615 634 538 708 q 692 454 692 559 l 692 241 q 615 59 692 134 q 428 -16 538 -16 l 411 -16 q 249 50 318 -16 l 249 -250 l 142 -250 m 578 236 l 578 460 q 533 566 578 522 q 424 610 489 610 l 408 610 q 298 565 343 610 q 253 458 253 521 l 253 236 q 298 130 253 174 q 408 86 343 86 l 424 86 q 533 130 489 86 q 578 236 578 174 z "},"q":{"ha":833,"x_min":142,"x_max":692,"o":"m 692 694 l 692 -250 l 585 -250 l 585 50 q 422 -16 515 -15 l 406 -16 q 219 60 296 -16 q 142 241 142 135 l 142 454 q 219 634 142 560 q 406 708 296 708 l 425 708 q 587 646 525 708 l 587 694 l 692 694 m 256 460 l 256 236 q 300 130 256 174 q 410 86 345 86 l 425 86 q 535 130 490 86 q 581 236 581 174 l 581 458 q 535 565 581 521 q 425 610 490 610 l 410 610 q 300 566 345 610 q 256 460 256 522 z "},"r":{"ha":833,"x_min":104,"x_max":728,"o":"m 358 635 q 513 708 414 708 q 670 640 612 708 q 728 496 728 572 l 615 496 q 584 575 615 542 q 502 608 553 608 q 406 567 450 608 q 361 472 361 525 l 361 100 l 652 100 l 652 0 l 104 0 l 104 100 l 250 100 l 250 694 l 358 694 l 358 635 z "},"s":{"ha":833,"x_min":167,"x_max":665,"o":"m 665 496 l 550 496 q 517 574 550 541 q 439 608 484 608 l 412 608 q 340 584 371 608 q 309 523 309 559 q 345 460 309 486 q 434 415 382 433 q 537 374 486 397 q 626 303 589 351 q 663 180 663 256 q 593 45 663 104 q 432 -14 524 -14 l 401 -14 q 233 52 300 -14 q 167 203 167 117 l 167 220 l 278 220 l 278 207 q 316 122 278 158 q 406 86 354 86 l 431 86 q 514 116 479 86 q 549 187 549 145 q 512 257 549 229 q 422 303 475 285 q 317 345 370 322 q 229 410 265 367 q 192 515 192 453 q 256 654 192 600 q 412 708 319 708 l 439 708 q 604 640 543 708 q 665 496 665 572 z "},"t":{"ha":833,"x_min":104,"x_max":729,"o":"m 232 210 l 232 595 l 104 595 l 104 694 l 232 694 l 232 892 l 345 892 l 345 694 l 697 694 l 697 595 l 345 595 l 345 218 q 382 126 345 165 q 475 86 419 86 l 489 86 q 578 126 541 86 q 615 218 615 165 l 729 218 q 665 50 729 115 q 485 -16 600 -16 l 471 -16 q 296 49 361 -16 q 232 210 232 114 z "},"u":{"ha":833,"x_min":142,"x_max":690,"o":"m 142 694 l 254 694 l 254 236 q 298 129 254 172 q 408 86 342 86 q 527 131 475 86 q 579 229 579 176 l 579 694 l 690 694 l 690 0 l 582 0 l 582 57 q 400 -14 511 -14 q 215 60 289 -14 q 142 240 142 134 l 142 694 z "},"v":{"ha":833,"x_min":167,"x_max":665,"o":"m 278 694 l 278 433 l 401 87 l 432 87 l 557 433 l 557 694 l 665 694 l 665 432 l 510 0 l 323 0 l 167 432 l 167 694 l 278 694 z "},"w":{"ha":833,"x_min":119,"x_max":714,"o":"m 603 694 l 714 694 l 714 425 l 653 0 l 473 0 l 419 321 l 412 321 l 359 0 l 180 0 l 119 425 l 119 694 l 231 694 l 231 436 l 264 102 l 285 102 l 346 446 l 485 446 l 549 102 l 570 102 l 603 436 l 603 694 z "},"x":{"ha":833,"x_min":132,"x_max":701,"o":"m 267 694 l 416 453 l 566 694 l 694 694 l 482 355 l 701 0 l 575 0 l 416 257 l 258 0 l 132 0 l 350 355 l 139 694 l 267 694 z "},"y":{"ha":833,"x_min":107,"x_max":726,"o":"m 227 694 l 418 164 l 607 694 l 726 694 l 370 -250 l 257 -250 l 355 22 l 107 694 l 227 694 z "},"z":{"ha":833,"x_min":153,"x_max":679,"o":"m 679 100 l 679 0 l 153 0 l 153 104 l 543 595 l 172 595 l 172 694 l 673 694 l 673 587 l 285 100 l 679 100 z "},"{":{"ha":833,"x_min":243,"x_max":590,"o":"m 590 -154 l 590 -264 q 397 -189 476 -264 q 318 -7 318 -114 l 318 256 q 296 299 318 281 q 243 317 273 317 l 243 421 q 296 439 273 421 q 318 481 318 457 l 318 732 q 397 913 318 839 q 590 987 476 987 l 590 875 q 479 833 524 875 q 435 730 435 791 l 435 494 q 354 367 435 414 q 435 240 435 322 l 435 -8 q 479 -112 435 -71 q 590 -154 524 -154 z "},"|":{"ha":833,"x_min":363,"x_max":471,"o":"m 363 -250 l 363 972 l 471 972 l 471 -250 l 363 -250 z "},"}":{"ha":833,"x_min":243,"x_max":590,"o":"m 243 -264 l 243 -154 q 354 -112 309 -154 q 399 -8 399 -71 l 399 240 q 479 367 399 322 q 399 494 399 414 l 399 730 q 354 833 399 791 q 243 875 310 875 l 243 987 q 436 913 357 987 q 515 732 515 839 l 515 481 q 537 439 515 457 q 590 421 559 421 l 590 317 q 537 299 559 317 q 515 256 515 281 l 515 -7 q 436 -189 515 -114 q 243 -264 357 -264 z "},"~":{"ha":833,"x_min":90,"x_max":743,"o":"m 281 497 q 424 458 331 497 q 551 419 517 419 q 608 440 586 419 q 636 486 629 461 l 743 486 q 681 366 732 418 q 566 314 629 314 q 406 353 502 314 q 280 392 310 392 q 228 372 250 392 q 196 325 205 351 l 90 325 q 152 445 98 393 q 281 497 205 497 z "},"¡":{"ha":833,"x_min":349,"x_max":485,"o":"m 349 558 l 349 694 l 485 694 l 485 558 l 349 558 m 472 465 l 472 -267 l 359 -267 l 359 465 l 472 465 z "},"¢":{"ha":833,"x_min":164,"x_max":668,"o":"m 372 -68 l 372 0 q 221 75 278 12 q 164 224 164 138 l 164 476 q 221 622 164 559 q 372 697 278 684 l 372 762 l 484 762 l 484 693 q 613 613 564 673 q 661 471 661 553 l 551 471 q 513 565 551 526 q 417 603 475 603 q 317 562 359 603 q 275 468 275 521 l 275 229 q 317 137 275 176 q 416 97 358 97 q 516 137 475 97 q 557 235 557 178 l 668 235 q 618 84 668 147 q 484 3 568 21 l 484 -68 l 372 -68 z "},"£":{"ha":833,"x_min":142,"x_max":692,"o":"m 690 113 l 690 0 l 187 0 l 187 113 l 227 113 l 227 392 l 142 392 l 142 501 l 227 501 l 227 760 q 295 919 227 852 q 459 985 363 985 q 624 919 555 985 q 692 760 692 852 l 692 705 l 572 705 l 572 766 q 540 843 572 811 q 460 875 507 875 q 380 843 414 875 q 347 766 347 811 l 347 501 l 522 501 l 522 392 l 347 392 l 347 113 l 690 113 z "},"¤":{"ha":833,"x_min":107,"x_max":726,"o":"m 581 161 q 416 111 505 111 q 252 161 326 111 l 184 96 l 107 175 l 172 241 q 122 405 122 318 q 174 571 122 492 l 107 637 l 184 715 l 252 648 q 416 699 330 699 q 581 648 503 699 l 647 715 l 726 637 l 660 571 q 710 404 710 494 q 661 241 710 314 l 726 175 l 647 96 l 581 161 m 285 275 q 312 248 285 275 q 415 221 339 221 q 546 276 491 221 q 600 406 600 330 q 546 535 600 481 q 417 590 492 590 q 286 535 342 590 q 231 405 231 481 q 285 275 231 329 z "},"¥":{"ha":833,"x_min":122,"x_max":711,"o":"m 692 378 l 692 269 l 475 269 l 475 0 l 357 0 l 357 269 l 140 269 l 140 378 l 357 378 l 357 458 l 350 475 l 140 475 l 140 585 l 300 585 l 122 972 l 249 972 l 415 593 l 586 972 l 711 972 l 533 585 l 692 585 l 692 475 l 482 475 l 475 461 l 475 378 l 692 378 z "},"¦":{"ha":833,"x_min":363,"x_max":471,"o":"m 363 468 l 363 974 l 471 974 l 471 468 l 363 468 m 363 -250 l 363 253 l 471 253 l 471 -250 l 363 -250 z "},"§":{"ha":833,"x_min":153,"x_max":681,"o":"m 189 203 l 302 203 q 410 98 302 98 l 416 98 q 493 121 468 98 q 518 176 518 144 q 480 237 518 208 q 390 291 443 267 q 282 345 336 315 q 190 424 228 374 q 153 541 153 473 q 224 697 153 636 q 196 808 196 737 q 254 932 196 880 q 416 985 311 985 l 427 985 q 591 926 538 985 q 644 770 644 868 l 529 770 q 422 872 529 873 l 416 872 q 339 849 363 872 q 314 795 314 827 q 351 733 314 763 q 443 680 389 704 q 551 627 497 656 q 643 547 606 597 q 681 432 681 497 q 608 273 681 339 q 637 172 637 224 q 579 40 637 93 q 416 -14 521 -14 l 407 -14 q 242 45 296 -14 q 189 203 189 103 m 528 350 q 564 423 564 380 q 527 498 564 467 q 411 567 490 529 q 304 623 332 606 q 269 549 269 593 q 307 472 269 504 q 422 404 345 440 q 528 350 500 368 z "},"¨":{"ha":833,"x_min":237,"x_max":596,"o":"m 237 848 l 237 972 l 361 972 l 361 848 l 237 848 m 472 848 l 472 972 l 596 972 l 596 848 l 472 848 z "},"©":{"ha":833,"x_min":100,"x_max":732,"o":"m 347 660 l 347 500 q 368 448 347 471 q 419 425 389 425 q 470 447 449 425 q 490 503 490 469 l 568 503 q 527 388 568 435 q 420 342 486 342 q 311 384 353 342 q 269 488 269 425 l 269 673 q 311 775 269 733 q 418 818 353 818 q 523 771 483 818 q 562 659 562 725 l 485 659 q 467 714 485 693 q 420 736 449 736 q 369 713 391 736 q 347 660 347 690 m 404 240 l 428 240 q 586 310 518 240 q 654 473 654 379 l 654 681 q 586 844 654 775 q 428 913 518 913 l 404 913 q 245 844 314 913 q 176 681 176 775 l 176 473 q 245 310 176 379 q 404 240 314 240 m 404 985 l 428 985 q 642 892 551 985 q 732 671 732 800 l 732 482 q 642 261 732 353 q 428 168 551 168 l 404 168 q 190 260 281 168 q 100 482 100 353 l 100 671 q 190 892 100 800 q 404 985 281 985 z "},"ª":{"ha":833,"x_min":239,"x_max":593,"o":"m 261 852 q 431 986 281 986 q 549 945 505 986 q 593 840 593 904 l 593 542 l 501 542 l 501 570 q 399 534 465 534 q 286 575 334 534 q 239 675 239 616 q 287 772 239 733 q 404 818 335 811 l 498 827 l 498 836 q 478 884 498 863 q 427 905 458 905 q 358 852 368 905 l 261 852 m 353 634 q 364 624 353 634 q 409 615 375 615 q 471 634 443 615 q 498 673 498 653 l 498 745 l 408 736 q 354 717 376 733 q 332 677 332 701 q 353 634 332 652 m 593 472 l 593 392 l 250 392 l 250 472 l 593 472 z "},"«":{"ha":833,"x_min":142,"x_max":690,"o":"m 441 184 l 311 184 l 142 404 l 311 625 l 440 625 l 269 404 l 441 184 m 690 184 l 559 184 l 390 404 l 559 625 l 689 625 l 518 404 l 690 184 z "},"¬":{"ha":833,"x_min":109,"x_max":724,"o":"m 724 579 l 724 191 l 612 191 l 612 468 l 109 468 l 109 579 l 724 579 z "},"­":{"ha":833,"x_min":0,"x_max":0,"o":""},"®":{"ha":833,"x_min":100,"x_max":732,"o":"m 367 511 l 367 359 l 289 359 l 289 808 l 443 808 q 518 774 486 808 q 550 696 550 741 l 550 627 q 535 571 550 599 q 500 528 521 543 l 572 359 l 488 359 l 424 511 l 367 511 m 471 616 l 471 692 q 461 714 471 704 q 440 724 452 724 l 364 724 l 364 586 l 440 586 q 461 595 452 586 q 471 616 471 604 m 404 986 l 428 986 q 642 894 551 986 q 732 672 732 802 l 732 484 q 642 262 732 355 q 428 170 551 170 l 404 170 q 190 262 281 170 q 100 484 100 354 l 100 672 q 190 893 100 801 q 404 986 281 986 m 404 241 l 428 241 q 586 311 518 241 q 654 475 654 380 l 654 682 q 586 845 654 777 q 428 914 518 914 l 404 914 q 245 845 314 914 q 176 682 176 777 l 176 475 q 245 311 176 380 q 404 241 314 241 z "},"¯":{"ha":833,"x_min":207,"x_max":627,"o":"m 207 829 l 207 932 l 627 932 l 627 829 l 207 829 z "},"°":{"ha":833,"x_min":214,"x_max":619,"o":"m 274 642 q 244 671 274 642 q 214 785 214 701 q 274 928 214 868 q 417 987 334 987 q 559 928 500 987 q 619 785 619 868 q 559 642 619 701 q 417 582 500 582 q 274 642 334 582 m 337 864 q 321 847 337 864 q 304 785 304 831 q 337 706 304 739 q 416 672 370 672 q 495 706 463 672 q 528 785 528 739 q 495 864 528 831 q 416 897 463 897 q 337 864 369 897 z "},"±":{"ha":833,"x_min":98,"x_max":733,"o":"m 358 708 l 472 708 l 472 530 l 732 530 l 732 421 l 472 421 l 472 244 l 358 244 l 358 421 l 98 421 l 98 530 l 358 530 l 358 708 m 733 204 l 733 94 l 98 94 l 98 204 l 733 204 z "},"²":{"ha":833,"x_min":257,"x_max":576,"o":"m 359 819 l 264 819 q 310 941 264 896 q 420 986 355 986 q 531 944 486 986 q 576 847 576 903 q 545 748 576 791 q 441 652 513 704 q 359 538 370 600 l 576 538 l 576 449 l 257 449 l 257 517 q 279 609 257 567 q 333 680 301 652 q 419 752 366 708 q 473 844 473 795 q 458 882 473 867 q 419 897 444 897 q 377 876 395 897 q 359 819 359 855 z "},"³":{"ha":833,"x_min":258,"x_max":574,"o":"m 286 882 l 286 972 l 559 972 l 559 900 l 485 803 q 548 753 522 787 q 574 679 574 720 l 574 589 q 528 485 574 529 q 421 440 482 440 l 412 440 q 303 483 349 440 q 258 589 258 526 l 258 604 l 358 604 l 358 589 q 375 548 358 565 q 417 530 392 530 q 457 547 441 530 q 473 589 473 564 l 473 679 q 463 709 473 697 q 435 721 453 721 l 363 721 l 363 799 l 428 882 l 286 882 z "},"´":{"ha":833,"x_min":249,"x_max":583,"o":"m 372 781 l 249 781 l 425 986 l 583 986 l 372 781 z "},"µ":{"ha":833,"x_min":139,"x_max":693,"o":"m 139 -250 l 139 694 l 248 694 l 248 221 q 286 126 248 165 q 379 86 323 86 q 479 125 435 86 q 524 216 524 164 l 524 694 l 632 694 l 632 143 q 647 115 633 126 q 679 103 661 103 l 693 103 l 693 0 l 679 0 q 549 68 601 0 q 367 -14 485 -14 q 245 33 295 -14 l 245 -250 l 139 -250 z "},"¶":{"ha":833,"x_min":143,"x_max":689,"o":"m 386 -250 l 386 433 q 213 524 283 450 q 143 705 143 597 q 224 892 143 814 q 419 971 304 971 l 689 971 l 689 -250 l 581 -250 l 581 868 l 494 868 l 494 -250 l 386 -250 z "},"·":{"ha":833,"x_min":349,"x_max":485,"o":"m 349 336 l 349 472 l 485 472 l 485 336 l 349 336 z "},"¸":{"ha":833,"x_min":314,"x_max":519,"o":"m 314 -250 l 314 -178 l 397 -178 q 418 -167 410 -178 q 427 -144 427 -157 q 418 -122 427 -132 q 397 -113 410 -113 l 328 -113 l 328 0 l 408 0 l 408 -39 q 486 -70 453 -39 q 519 -145 519 -102 q 487 -219 519 -189 q 410 -250 454 -250 l 314 -250 z "},"¹":{"ha":833,"x_min":325,"x_max":507,"o":"m 325 888 l 325 972 l 507 972 l 507 449 l 410 449 l 410 888 l 325 888 z "},"º":{"ha":833,"x_min":256,"x_max":576,"o":"m 576 840 l 576 679 q 532 575 576 616 q 418 533 488 533 q 301 575 347 533 q 256 679 256 616 l 256 840 q 301 944 256 903 q 417 986 347 986 q 532 944 487 986 q 576 840 576 903 m 490 679 l 490 840 q 469 885 490 865 q 417 904 447 904 q 367 885 387 904 q 346 840 346 865 l 346 679 q 367 633 346 654 q 418 612 389 612 q 469 633 447 612 q 490 679 490 654 m 576 472 l 576 392 l 265 392 l 265 472 l 576 472 z "},"»":{"ha":833,"x_min":142,"x_max":690,"o":"m 521 184 l 390 184 l 562 404 l 392 625 l 521 625 l 690 404 l 521 184 m 272 184 l 142 184 l 314 404 l 143 625 l 272 625 l 441 404 l 272 184 z "},"¼":{"ha":833,"x_min":94,"x_max":739,"o":"m 383 106 l 383 178 l 547 518 l 646 518 l 492 196 l 596 196 l 596 311 l 693 311 l 693 196 l 739 196 l 739 106 l 693 106 l 693 1 l 596 1 l 596 106 l 383 106 m 94 888 l 94 972 l 277 972 l 277 449 l 179 449 l 179 888 l 94 888 m 125 1 l 618 971 l 692 971 l 200 1 l 125 1 z "},"½":{"ha":833,"x_min":90,"x_max":743,"o":"m 526 371 l 431 371 q 476 493 431 448 q 587 538 522 538 q 697 496 651 538 q 743 399 743 454 q 711 299 743 343 q 607 203 679 256 q 526 89 536 151 l 743 89 l 743 0 l 424 0 l 424 68 q 478 212 424 163 q 586 303 532 260 q 640 396 640 347 q 626 434 640 418 q 586 449 611 449 q 544 428 561 449 q 526 371 526 407 m 90 888 l 90 972 l 272 972 l 272 449 l 175 449 l 175 888 l 90 888 m 92 1 l 585 971 l 659 971 l 167 1 l 92 1 z "},"¾":{"ha":833,"x_min":77,"x_max":757,"o":"m 104 882 l 104 972 l 378 972 l 378 900 l 302 803 q 366 753 340 787 q 392 679 392 720 l 392 589 q 346 485 392 529 q 239 440 300 440 l 231 440 q 122 483 167 440 q 77 589 77 526 l 77 604 l 176 604 l 176 589 q 193 548 176 565 q 235 530 210 530 q 276 547 260 530 q 292 589 292 564 l 292 679 q 281 709 292 697 q 253 721 271 721 l 180 721 l 180 799 l 245 882 l 104 882 m 158 1 l 652 971 l 725 971 l 233 1 l 158 1 m 401 106 l 401 178 l 566 518 l 664 518 l 510 196 l 614 196 l 614 311 l 711 311 l 711 196 l 757 196 l 757 106 l 711 106 l 711 1 l 614 1 l 614 106 l 401 106 z "},"¿":{"ha":833,"x_min":154,"x_max":677,"o":"m 562 -28 l 677 -28 q 603 -219 677 -147 q 416 -290 528 -290 q 229 -220 304 -290 q 154 -28 154 -150 q 210 149 154 93 q 322 263 267 205 q 378 465 378 321 l 493 465 q 470 306 493 374 q 415 201 447 239 q 328 107 383 163 q 273 -43 273 52 q 315 -139 273 -101 q 418 -178 357 -178 q 521 -137 480 -178 q 562 -28 562 -96 m 505 694 l 505 557 l 366 557 l 366 694 l 505 694 z "},"À":{"ha":833,"x_min":149,"x_max":684,"o":"m 684 0 l 566 0 l 566 310 l 265 310 l 265 0 l 149 0 l 149 415 l 317 972 l 515 972 l 684 412 l 684 0 m 562 418 l 429 863 l 403 863 l 271 418 l 562 418 m 530 1059 l 407 1059 l 196 1264 l 354 1264 l 530 1059 z "},"Á":{"ha":833,"x_min":149,"x_max":684,"o":"m 684 0 l 566 0 l 566 310 l 265 310 l 265 0 l 149 0 l 149 415 l 317 972 l 515 972 l 684 412 l 684 0 m 562 418 l 429 863 l 403 863 l 271 418 l 562 418 m 429 1059 l 306 1059 l 482 1264 l 640 1264 l 429 1059 z "},"Â":{"ha":833,"x_min":149,"x_max":684,"o":"m 684 0 l 566 0 l 566 310 l 265 310 l 265 0 l 149 0 l 149 415 l 317 972 l 515 972 l 684 412 l 684 0 m 562 418 l 429 863 l 403 863 l 271 418 l 562 418 m 314 1060 l 214 1060 l 361 1264 l 467 1264 l 616 1060 l 515 1060 l 412 1164 l 314 1060 z "},"Ã":{"ha":833,"x_min":149,"x_max":684,"o":"m 684 0 l 566 0 l 566 310 l 265 310 l 265 0 l 149 0 l 149 415 l 317 972 l 515 972 l 684 412 l 684 0 m 562 418 l 429 863 l 403 863 l 271 418 l 562 418 m 200 1078 q 241 1183 200 1135 q 335 1232 282 1232 q 425 1201 370 1232 q 497 1171 481 1171 q 523 1188 513 1171 q 532 1223 532 1206 l 632 1223 q 591 1118 632 1166 q 507 1069 551 1069 q 408 1100 464 1069 q 336 1131 353 1131 q 297 1078 304 1131 l 200 1078 z "},"Ä":{"ha":833,"x_min":149,"x_max":684,"o":"m 684 0 l 566 0 l 566 310 l 265 310 l 265 0 l 149 0 l 149 415 l 317 972 l 515 972 l 684 412 l 684 0 m 562 418 l 429 863 l 403 863 l 271 418 l 562 418 m 236 1126 l 236 1250 l 359 1250 l 359 1126 l 236 1126 m 471 1126 l 471 1250 l 595 1250 l 595 1126 l 471 1126 z "},"Å":{"ha":833,"x_min":149,"x_max":684,"o":"m 684 0 l 566 0 l 566 310 l 265 310 l 265 0 l 149 0 l 149 415 l 317 972 l 515 972 l 684 412 l 684 0 m 562 418 l 429 863 l 403 863 l 271 418 l 562 418 m 337 1075 q 321 1091 337 1075 q 306 1154 306 1107 q 337 1232 306 1200 q 414 1264 368 1264 q 492 1232 460 1264 q 525 1153 525 1199 q 492 1075 525 1107 q 414 1043 460 1043 q 337 1075 368 1043 m 385 1184 q 379 1178 385 1184 q 374 1155 374 1173 q 385 1125 374 1137 q 414 1114 396 1114 q 444 1125 432 1114 q 456 1155 456 1137 q 444 1184 456 1173 q 414 1196 432 1196 q 385 1184 396 1196 z "},"Æ":{"ha":833,"x_min":97,"x_max":736,"o":"m 732 972 l 732 863 l 509 863 l 509 567 l 699 567 l 699 458 l 509 458 l 509 110 l 736 110 l 736 0 l 389 0 l 389 310 l 215 310 l 215 0 l 97 0 l 97 415 l 267 972 l 732 972 m 389 418 l 389 863 l 351 863 l 221 418 l 389 418 z "},"Ç":{"ha":833,"x_min":150,"x_max":684,"o":"m 684 269 l 684 241 q 620 74 684 146 q 460 -11 555 3 l 460 -39 q 538 -70 505 -39 q 571 -145 571 -102 q 538 -219 571 -189 q 461 -250 505 -250 l 366 -250 l 366 -178 l 449 -178 q 470 -167 461 -178 q 478 -144 478 -157 q 470 -122 478 -132 q 449 -113 461 -113 l 379 -113 l 379 -11 q 215 73 281 0 q 150 243 150 146 l 150 730 q 227 912 150 838 q 414 986 304 986 l 421 986 q 607 911 531 986 q 684 729 684 836 l 567 729 q 523 831 567 789 q 416 873 479 873 q 311 832 354 873 q 268 729 268 790 l 268 241 q 311 138 268 180 q 416 96 354 96 q 523 138 479 96 q 567 240 567 180 l 567 269 l 684 269 z "},"È":{"ha":833,"x_min":174,"x_max":660,"o":"m 174 972 l 648 972 l 648 863 l 290 863 l 290 567 l 615 567 l 615 458 l 290 458 l 290 110 l 660 110 l 660 0 l 174 0 l 174 972 m 536 1059 l 412 1059 l 201 1264 l 359 1264 l 536 1059 z "},"É":{"ha":833,"x_min":174,"x_max":660,"o":"m 174 972 l 648 972 l 648 863 l 290 863 l 290 567 l 615 567 l 615 458 l 290 458 l 290 110 l 660 110 l 660 0 l 174 0 l 174 972 m 422 1059 l 298 1059 l 475 1264 l 633 1264 l 422 1059 z "},"Ê":{"ha":833,"x_min":174,"x_max":660,"o":"m 174 972 l 648 972 l 648 863 l 290 863 l 290 567 l 615 567 l 615 458 l 290 458 l 290 110 l 660 110 l 660 0 l 174 0 l 174 972 m 297 1060 l 197 1060 l 345 1264 l 450 1264 l 600 1060 l 498 1060 l 396 1164 l 297 1060 z "},"Ë":{"ha":833,"x_min":174,"x_max":660,"o":"m 174 972 l 648 972 l 648 863 l 290 863 l 290 567 l 615 567 l 615 458 l 290 458 l 290 110 l 660 110 l 660 0 l 174 0 l 174 972 m 233 1126 l 233 1250 l 357 1250 l 357 1126 l 233 1126 m 468 1126 l 468 1250 l 591 1250 l 591 1126 l 468 1126 z "},"Ì":{"ha":833,"x_min":149,"x_max":685,"o":"m 505 1059 l 382 1059 l 171 1264 l 329 1264 l 505 1059 m 149 864 l 149 972 l 685 972 l 685 864 l 475 864 l 475 109 l 685 109 l 685 0 l 149 0 l 149 109 l 358 109 l 358 864 l 149 864 z "},"Í":{"ha":833,"x_min":149,"x_max":685,"o":"m 453 1059 l 329 1059 l 505 1264 l 664 1264 l 453 1059 m 149 864 l 149 972 l 685 972 l 685 864 l 475 864 l 475 109 l 685 109 l 685 0 l 149 0 l 149 109 l 358 109 l 358 864 l 149 864 z "},"Î":{"ha":833,"x_min":149,"x_max":685,"o":"m 315 1060 l 215 1060 l 363 1264 l 468 1264 l 618 1060 l 517 1060 l 414 1164 l 315 1060 m 149 864 l 149 972 l 685 972 l 685 864 l 475 864 l 475 109 l 685 109 l 685 0 l 149 0 l 149 109 l 358 109 l 358 864 l 149 864 z "},"Ï":{"ha":833,"x_min":149,"x_max":685,"o":"m 237 1126 l 237 1250 l 361 1250 l 361 1126 l 237 1126 m 472 1126 l 472 1250 l 596 1250 l 596 1126 l 472 1126 m 149 864 l 149 972 l 685 972 l 685 864 l 475 864 l 475 109 l 685 109 l 685 0 l 149 0 l 149 109 l 358 109 l 358 864 l 149 864 z "},"Ð":{"ha":833,"x_min":114,"x_max":718,"o":"m 718 717 l 718 256 q 641 75 718 150 q 454 0 564 0 l 197 0 l 197 458 l 114 458 l 114 567 l 197 567 l 197 972 l 454 972 q 641 898 564 972 q 718 717 718 823 m 461 567 l 461 458 l 315 458 l 315 110 l 450 110 q 556 152 514 110 q 599 254 599 193 l 599 717 q 556 820 599 778 q 450 863 514 863 l 315 863 l 315 567 l 461 567 z "},"Ñ":{"ha":833,"x_min":149,"x_max":684,"o":"m 567 972 l 684 972 l 684 0 l 553 0 l 289 677 l 262 762 l 257 762 l 265 671 l 265 0 l 149 0 l 149 972 l 279 972 l 545 290 l 570 207 l 575 207 l 567 296 l 567 972 m 203 1078 q 244 1183 203 1135 q 338 1232 285 1232 q 428 1201 372 1232 q 500 1171 484 1171 q 525 1188 516 1171 q 534 1223 534 1206 l 635 1223 q 594 1118 635 1166 q 510 1069 553 1069 q 411 1100 467 1069 q 339 1131 355 1131 q 300 1078 307 1131 l 203 1078 z "},"Ò":{"ha":833,"x_min":140,"x_max":692,"o":"m 692 730 l 692 241 q 615 61 692 136 q 428 -14 538 -14 l 404 -14 q 217 61 294 -14 q 140 243 140 136 l 140 730 q 217 912 140 838 q 404 986 294 986 l 428 986 q 615 911 538 986 q 692 730 692 836 m 572 240 l 572 729 q 530 832 572 790 q 424 873 488 873 l 408 873 q 301 832 345 873 q 258 729 258 790 l 258 241 q 301 138 258 180 q 408 96 345 96 l 424 96 q 530 137 488 96 q 572 240 572 179 m 534 1059 l 411 1059 l 200 1264 l 358 1264 l 534 1059 z "},"Ó":{"ha":833,"x_min":140,"x_max":692,"o":"m 692 730 l 692 241 q 615 61 692 136 q 428 -14 538 -14 l 404 -14 q 217 61 294 -14 q 140 243 140 136 l 140 730 q 217 912 140 838 q 404 986 294 986 l 428 986 q 615 911 538 986 q 692 730 692 836 m 572 240 l 572 729 q 530 832 572 790 q 424 873 488 873 l 408 873 q 301 832 345 873 q 258 729 258 790 l 258 241 q 301 138 258 180 q 408 96 345 96 l 424 96 q 530 137 488 96 q 572 240 572 179 m 431 1059 l 307 1059 l 484 1264 l 642 1264 l 431 1059 z "},"Ô":{"ha":833,"x_min":140,"x_max":692,"o":"m 692 730 l 692 241 q 615 61 692 136 q 428 -14 538 -14 l 404 -14 q 217 61 294 -14 q 140 243 140 136 l 140 730 q 217 912 140 838 q 404 986 294 986 l 428 986 q 615 911 538 986 q 692 730 692 836 m 572 240 l 572 729 q 530 832 572 790 q 424 873 488 873 l 408 873 q 301 832 345 873 q 258 729 258 790 l 258 241 q 301 138 258 180 q 408 96 345 96 l 424 96 q 530 137 488 96 q 572 240 572 179 m 314 1060 l 214 1060 l 361 1264 l 467 1264 l 616 1060 l 515 1060 l 412 1164 l 314 1060 z "},"Õ":{"ha":833,"x_min":140,"x_max":692,"o":"m 692 730 l 692 241 q 615 61 692 136 q 428 -14 538 -14 l 404 -14 q 217 61 294 -14 q 140 243 140 136 l 140 730 q 217 912 140 838 q 404 986 294 986 l 428 986 q 615 911 538 986 q 692 730 692 836 m 572 240 l 572 729 q 530 832 572 790 q 424 873 488 873 l 408 873 q 301 832 345 873 q 258 729 258 790 l 258 241 q 301 138 258 180 q 408 96 345 96 l 424 96 q 530 137 488 96 q 572 240 572 179 m 200 1078 q 241 1183 200 1135 q 335 1232 282 1232 q 425 1201 370 1232 q 497 1171 481 1171 q 523 1188 513 1171 q 532 1223 532 1206 l 632 1223 q 591 1118 632 1166 q 507 1069 551 1069 q 408 1100 464 1069 q 336 1131 353 1131 q 297 1078 304 1131 l 200 1078 z "},"Ö":{"ha":833,"x_min":140,"x_max":692,"o":"m 692 730 l 692 241 q 615 61 692 136 q 428 -14 538 -14 l 404 -14 q 217 61 294 -14 q 140 243 140 136 l 140 730 q 217 912 140 838 q 404 986 294 986 l 428 986 q 615 911 538 986 q 692 730 692 836 m 572 240 l 572 729 q 530 832 572 790 q 424 873 488 873 l 408 873 q 301 832 345 873 q 258 729 258 790 l 258 241 q 301 138 258 180 q 408 96 345 96 l 424 96 q 530 137 488 96 q 572 240 572 179 m 235 1126 l 235 1250 l 358 1250 l 358 1126 l 235 1126 m 469 1126 l 469 1250 l 593 1250 l 593 1126 l 469 1126 z "},"×":{"ha":833,"x_min":147,"x_max":686,"o":"m 147 597 l 225 675 l 416 484 l 608 675 l 686 597 l 494 404 l 686 214 l 608 135 l 416 328 l 227 136 l 147 214 l 338 404 l 147 597 z "},"Ø":{"ha":833,"x_min":140,"x_max":692,"o":"m 140 730 q 217 912 140 838 q 404 986 294 986 l 428 986 q 564 949 503 986 l 575 972 l 692 972 l 647 872 q 692 730 692 808 l 692 241 q 615 61 692 136 q 428 -14 538 -14 l 404 -14 q 265 24 329 -14 l 256 0 l 140 0 l 184 98 q 140 243 140 162 l 140 730 m 572 240 l 572 729 l 559 677 l 313 127 q 408 96 355 96 l 424 96 q 530 137 488 96 q 572 240 572 179 m 258 729 l 258 245 l 275 301 l 517 842 q 424 873 475 873 l 408 873 q 301 832 345 873 q 258 729 258 790 z "},"Ù":{"ha":833,"x_min":140,"x_max":692,"o":"m 572 972 l 692 972 l 692 241 q 615 61 692 136 q 428 -14 538 -14 l 404 -14 q 217 61 294 -14 q 140 243 140 136 l 140 972 l 258 972 l 258 241 q 301 138 258 180 q 408 96 345 96 l 424 96 q 530 137 488 96 q 572 240 572 179 l 572 972 m 529 1059 l 406 1059 l 195 1264 l 353 1264 l 529 1059 z "},"Ú":{"ha":833,"x_min":140,"x_max":692,"o":"m 572 972 l 692 972 l 692 241 q 615 61 692 136 q 428 -14 538 -14 l 404 -14 q 217 61 294 -14 q 140 243 140 136 l 140 972 l 258 972 l 258 241 q 301 138 258 180 q 408 96 345 96 l 424 96 q 530 137 488 96 q 572 240 572 179 l 572 972 m 422 1059 l 298 1059 l 475 1264 l 633 1264 l 422 1059 z "},"Û":{"ha":833,"x_min":140,"x_max":692,"o":"m 572 972 l 692 972 l 692 241 q 615 61 692 136 q 428 -14 538 -14 l 404 -14 q 217 61 294 -14 q 140 243 140 136 l 140 972 l 258 972 l 258 241 q 301 138 258 180 q 408 96 345 96 l 424 96 q 530 137 488 96 q 572 240 572 179 l 572 972 m 314 1060 l 214 1060 l 361 1264 l 467 1264 l 616 1060 l 515 1060 l 412 1164 l 314 1060 z "},"Ü":{"ha":833,"x_min":140,"x_max":692,"o":"m 572 972 l 692 972 l 692 241 q 615 61 692 136 q 428 -14 538 -14 l 404 -14 q 217 61 294 -14 q 140 243 140 136 l 140 972 l 258 972 l 258 241 q 301 138 258 180 q 408 96 345 96 l 424 96 q 530 137 488 96 q 572 240 572 179 l 572 972 m 236 1126 l 236 1250 l 359 1250 l 359 1126 l 236 1126 m 471 1126 l 471 1250 l 595 1250 l 595 1126 l 471 1126 z "},"Ý":{"ha":833,"x_min":103,"x_max":730,"o":"m 476 0 l 355 0 l 355 460 l 103 972 l 232 972 l 416 607 l 600 972 l 730 972 l 476 460 l 476 0 m 432 1059 l 309 1059 l 485 1264 l 643 1264 l 432 1059 z "},"Þ":{"ha":833,"x_min":172,"x_max":660,"o":"m 172 0 l 172 972 l 289 972 l 289 832 l 437 832 q 595 769 530 832 q 660 615 660 705 l 660 414 q 595 260 660 323 q 437 197 530 197 l 289 197 l 289 0 l 172 0 m 542 411 l 542 614 q 510 688 542 656 q 433 720 478 720 l 289 720 l 289 307 l 433 307 q 510 338 478 307 q 542 411 542 368 z "},"ß":{"ha":833,"x_min":127,"x_max":704,"o":"m 236 728 l 236 0 l 127 0 l 127 729 q 200 910 127 836 q 375 985 272 985 l 386 985 q 558 915 488 985 q 628 751 628 844 l 628 640 q 524 611 567 637 q 481 551 481 585 q 504 487 481 518 q 559 428 526 456 q 648 347 591 400 q 704 199 704 293 q 644 46 704 106 q 497 -14 583 -14 q 351 46 411 -14 q 290 191 290 106 l 290 211 l 401 211 l 401 183 q 430 115 401 143 q 498 86 458 86 q 566 115 537 86 q 595 183 595 144 q 572 256 595 222 q 515 316 549 289 q 426 393 482 343 q 370 546 370 444 q 413 657 370 611 q 519 718 456 704 l 519 728 q 479 841 519 795 q 380 886 439 886 q 278 840 321 886 q 236 728 236 794 z "},"à":{"ha":833,"x_min":150,"x_max":682,"o":"m 574 0 l 574 57 q 506 8 554 31 q 415 -14 458 -14 l 389 -14 q 222 49 294 -14 q 150 202 150 111 q 217 356 150 293 q 379 427 283 419 l 570 439 l 570 475 q 532 567 570 528 q 439 607 494 607 l 425 607 q 338 578 378 607 q 292 505 298 550 l 182 505 q 263 650 191 591 q 429 708 335 708 l 443 708 q 617 644 553 708 q 682 484 682 579 l 682 0 l 574 0 m 395 86 l 415 86 q 523 129 476 86 q 570 218 570 172 l 570 339 l 387 326 q 297 288 333 322 q 261 205 261 254 q 302 121 261 155 q 395 86 343 86 m 545 781 l 421 781 l 210 986 l 368 986 l 545 781 z "},"á":{"ha":833,"x_min":150,"x_max":682,"o":"m 574 0 l 574 57 q 506 8 554 31 q 415 -14 458 -14 l 389 -14 q 222 49 294 -14 q 150 202 150 111 q 217 356 150 293 q 379 427 283 419 l 570 439 l 570 475 q 532 567 570 528 q 439 607 494 607 l 425 607 q 338 578 378 607 q 292 505 298 550 l 182 505 q 263 650 191 591 q 429 708 335 708 l 443 708 q 617 644 553 708 q 682 484 682 579 l 682 0 l 574 0 m 395 86 l 415 86 q 523 129 476 86 q 570 218 570 172 l 570 339 l 387 326 q 297 288 333 322 q 261 205 261 254 q 302 121 261 155 q 395 86 343 86 m 456 781 l 332 781 l 509 986 l 667 986 l 456 781 z "},"â":{"ha":833,"x_min":150,"x_max":682,"o":"m 574 0 l 574 57 q 506 8 554 31 q 415 -14 458 -14 l 389 -14 q 222 49 294 -14 q 150 202 150 111 q 217 356 150 293 q 379 427 283 419 l 570 439 l 570 475 q 532 567 570 528 q 439 607 494 607 l 425 607 q 338 578 378 607 q 292 505 298 550 l 182 505 q 263 650 191 591 q 429 708 335 708 l 443 708 q 617 644 553 708 q 682 484 682 579 l 682 0 l 574 0 m 395 86 l 415 86 q 523 129 476 86 q 570 218 570 172 l 570 339 l 387 326 q 297 288 333 322 q 261 205 261 254 q 302 121 261 155 q 395 86 343 86 m 339 782 l 239 782 l 386 986 l 492 986 l 642 782 l 541 782 l 437 886 l 339 782 z "},"ã":{"ha":833,"x_min":150,"x_max":682,"o":"m 574 0 l 574 57 q 506 8 554 31 q 415 -14 458 -14 l 389 -14 q 222 49 294 -14 q 150 202 150 111 q 217 356 150 293 q 379 427 283 419 l 570 439 l 570 475 q 532 567 570 528 q 439 607 494 607 l 425 607 q 338 578 378 607 q 292 505 298 550 l 182 505 q 263 650 191 591 q 429 708 335 708 l 443 708 q 617 644 553 708 q 682 484 682 579 l 682 0 l 574 0 m 395 86 l 415 86 q 523 129 476 86 q 570 218 570 172 l 570 339 l 387 326 q 297 288 333 322 q 261 205 261 254 q 302 121 261 155 q 395 86 343 86 m 358 852 q 321 800 328 852 l 224 800 q 265 906 224 857 q 350 954 306 954 q 449 924 394 954 q 521 893 505 893 q 546 910 537 893 q 555 946 555 928 l 656 946 q 615 840 656 889 q 532 791 575 791 q 432 822 488 791 q 358 852 376 852 z "},"ä":{"ha":833,"x_min":150,"x_max":682,"o":"m 574 0 l 574 57 q 506 8 554 31 q 415 -14 458 -14 l 389 -14 q 222 49 294 -14 q 150 202 150 111 q 217 356 150 293 q 379 427 283 419 l 570 439 l 570 475 q 532 567 570 528 q 439 607 494 607 l 425 607 q 338 578 378 607 q 292 505 298 550 l 182 505 q 263 650 191 591 q 429 708 335 708 l 443 708 q 617 644 553 708 q 682 484 682 579 l 682 0 l 574 0 m 395 86 l 415 86 q 523 129 476 86 q 570 218 570 172 l 570 339 l 387 326 q 297 288 333 322 q 261 205 261 254 q 302 121 261 155 q 395 86 343 86 m 261 848 l 261 972 l 385 972 l 385 848 l 261 848 m 496 848 l 496 972 l 619 972 l 619 848 l 496 848 z "},"å":{"ha":833,"x_min":150,"x_max":682,"o":"m 574 0 l 574 57 q 506 8 554 31 q 415 -14 458 -14 l 389 -14 q 222 49 294 -14 q 150 202 150 111 q 217 356 150 293 q 379 427 283 419 l 570 439 l 570 475 q 532 567 570 528 q 439 607 494 607 l 425 607 q 338 578 378 607 q 292 505 298 550 l 182 505 q 263 650 191 591 q 429 708 335 708 l 443 708 q 617 644 553 708 q 682 484 682 579 l 682 0 l 574 0 m 395 86 l 415 86 q 523 129 476 86 q 570 218 570 172 l 570 339 l 387 326 q 297 288 333 322 q 261 205 261 254 q 302 121 261 155 q 395 86 343 86 m 362 797 q 346 813 362 797 q 330 876 330 829 q 362 954 330 922 q 439 986 393 986 q 517 954 485 986 q 550 876 550 922 q 517 797 550 829 q 439 765 485 765 q 362 797 393 765 m 410 906 q 404 900 410 906 q 399 877 399 895 q 410 848 399 859 q 439 836 421 836 q 469 848 457 836 q 481 878 481 860 q 469 907 481 895 q 439 918 457 918 q 410 906 421 918 z "},"æ":{"ha":833,"x_min":87,"x_max":745,"o":"m 643 212 l 745 212 l 745 176 q 688 42 745 98 q 558 -14 632 -14 q 477 4 508 -14 q 419 60 447 21 q 268 -14 370 -14 q 139 48 190 -14 q 87 203 87 110 q 140 358 87 296 q 272 421 193 421 l 368 421 l 368 515 q 344 581 368 554 q 286 607 319 607 q 204 504 204 607 l 104 504 q 154 651 104 594 q 285 708 203 708 q 419 633 367 708 q 478 689 447 671 q 558 708 509 708 q 690 653 636 708 q 745 517 745 597 l 745 321 l 469 321 l 469 175 q 494 113 469 138 q 555 87 518 87 q 618 113 593 87 q 643 176 643 139 l 643 212 m 212 120 q 223 104 212 120 q 273 87 234 87 q 340 113 311 87 q 368 175 368 139 l 368 321 l 275 321 q 212 288 234 321 q 191 204 191 256 q 212 120 191 153 m 617 581 q 604 594 617 581 q 554 607 591 607 q 493 581 517 607 q 469 517 469 555 l 469 421 l 643 421 l 643 517 q 617 581 643 554 z "},"ç":{"ha":833,"x_min":144,"x_max":689,"o":"m 682 463 l 568 463 q 530 566 568 524 q 428 608 492 608 l 412 608 q 302 565 347 608 q 257 458 257 521 l 257 236 q 302 129 257 174 q 412 85 347 85 l 421 85 q 531 128 486 85 q 575 231 575 171 l 689 231 q 624 72 689 142 q 465 -11 559 3 l 465 -39 q 543 -70 510 -39 q 576 -145 576 -102 q 544 -219 576 -189 q 467 -250 511 -250 l 371 -250 l 371 -178 l 454 -178 q 475 -167 467 -178 q 484 -144 484 -157 q 475 -122 484 -132 q 454 -113 467 -113 l 385 -113 l 385 -12 q 213 69 281 -4 q 144 243 144 142 l 144 454 q 221 636 144 562 q 408 710 298 710 l 432 710 q 611 638 541 710 q 682 463 682 567 z "},"è":{"ha":833,"x_min":143,"x_max":690,"o":"m 567 212 l 681 212 q 608 57 681 127 q 431 -14 534 -14 l 407 -14 q 220 61 297 -14 q 143 243 143 136 l 143 454 q 220 635 143 562 q 407 708 297 708 l 432 708 q 616 634 542 708 q 690 454 690 561 l 690 313 l 256 313 l 256 236 q 301 129 256 174 q 411 85 346 85 l 427 85 q 527 125 488 85 q 567 212 567 166 m 256 458 l 256 414 l 581 414 l 581 458 q 537 565 581 521 q 428 608 493 608 l 411 608 q 301 565 346 608 q 256 458 256 521 m 524 781 l 400 781 l 189 986 l 347 986 l 524 781 z "},"é":{"ha":833,"x_min":143,"x_max":690,"o":"m 567 212 l 681 212 q 608 57 681 127 q 431 -14 534 -14 l 407 -14 q 220 61 297 -14 q 143 243 143 136 l 143 454 q 220 635 143 562 q 407 708 297 708 l 432 708 q 616 634 542 708 q 690 454 690 561 l 690 313 l 256 313 l 256 236 q 301 129 256 174 q 411 85 346 85 l 427 85 q 527 125 488 85 q 567 212 567 166 m 256 458 l 256 414 l 581 414 l 581 458 q 537 565 581 521 q 428 608 493 608 l 411 608 q 301 565 346 608 q 256 458 256 521 m 431 781 l 307 781 l 484 986 l 642 986 l 431 781 z "},"ê":{"ha":833,"x_min":143,"x_max":690,"o":"m 567 212 l 681 212 q 608 57 681 127 q 431 -14 534 -14 l 407 -14 q 220 61 297 -14 q 143 243 143 136 l 143 454 q 220 635 143 562 q 407 708 297 708 l 432 708 q 616 634 542 708 q 690 454 690 561 l 690 313 l 256 313 l 256 236 q 301 129 256 174 q 411 85 346 85 l 427 85 q 527 125 488 85 q 567 212 567 166 m 256 458 l 256 414 l 581 414 l 581 458 q 537 565 581 521 q 428 608 493 608 l 411 608 q 301 565 346 608 q 256 458 256 521 m 314 782 l 214 782 l 361 986 l 467 986 l 616 782 l 515 782 l 412 886 l 314 782 z "},"ë":{"ha":833,"x_min":143,"x_max":690,"o":"m 567 212 l 681 212 q 608 57 681 127 q 431 -14 534 -14 l 407 -14 q 220 61 297 -14 q 143 243 143 136 l 143 454 q 220 635 143 562 q 407 708 297 708 l 432 708 q 616 634 542 708 q 690 454 690 561 l 690 313 l 256 313 l 256 236 q 301 129 256 174 q 411 85 346 85 l 427 85 q 527 125 488 85 q 567 212 567 166 m 256 458 l 256 414 l 581 414 l 581 458 q 537 565 581 521 q 428 608 493 608 l 411 608 q 301 565 346 608 q 256 458 256 521 m 236 848 l 236 972 l 359 972 l 359 848 l 236 848 m 471 848 l 471 972 l 595 972 l 595 848 l 471 848 z "},"ì":{"ha":833,"x_min":123,"x_max":685,"o":"m 123 595 l 123 694 l 468 694 l 468 100 l 685 100 l 685 0 l 123 0 l 123 100 l 357 100 l 357 595 l 123 595 m 504 781 l 380 781 l 170 986 l 328 986 l 504 781 z "},"í":{"ha":833,"x_min":123,"x_max":684,"o":"m 123 595 l 123 694 l 468 694 l 468 100 l 684 100 l 684 0 l 123 0 l 123 100 l 357 100 l 357 595 l 123 595 m 425 781 l 301 781 l 478 986 l 636 986 l 425 781 z "},"î":{"ha":833,"x_min":123,"x_max":685,"o":"m 123 595 l 123 694 l 468 694 l 468 100 l 685 100 l 685 0 l 123 0 l 123 100 l 357 100 l 357 595 l 123 595 m 307 782 l 207 782 l 354 986 l 460 986 l 610 782 l 509 782 l 406 886 l 307 782 z "},"ï":{"ha":833,"x_min":123,"x_max":685,"o":"m 123 595 l 123 694 l 468 694 l 468 100 l 685 100 l 685 0 l 123 0 l 123 100 l 357 100 l 357 595 l 123 595 m 225 848 l 225 972 l 349 972 l 349 848 l 225 848 m 460 848 l 460 972 l 583 972 l 583 848 l 460 848 z "},"ð":{"ha":833,"x_min":115,"x_max":717,"o":"m 631 211 q 560 51 631 115 q 374 -14 489 -14 q 187 51 258 -14 q 115 211 115 115 l 115 431 q 187 591 115 526 q 363 656 259 656 q 517 612 468 656 l 517 717 l 515 734 l 406 699 l 406 794 l 484 821 q 374 871 437 871 l 292 871 l 292 972 l 374 972 q 599 860 524 972 l 717 899 l 717 802 l 628 772 q 631 717 631 764 l 631 211 m 517 220 l 517 422 q 475 515 517 475 q 374 554 433 554 q 272 514 314 554 q 229 422 229 475 l 229 220 q 272 127 229 167 q 374 87 314 87 q 475 127 433 87 q 517 220 517 167 z "},"ñ":{"ha":833,"x_min":142,"x_max":690,"o":"m 690 0 l 578 0 l 578 458 q 534 565 578 522 q 424 608 490 608 q 305 563 357 608 q 253 465 253 518 l 253 0 l 142 0 l 142 694 l 250 694 l 250 637 q 432 708 321 708 q 617 634 543 708 q 690 454 690 561 l 690 0 m 345 852 q 307 800 314 852 l 210 800 q 251 906 210 857 q 336 954 292 954 q 436 924 381 954 q 507 893 491 893 q 533 910 524 893 q 542 946 542 928 l 642 946 q 601 840 642 889 q 517 791 561 791 q 418 822 474 791 q 345 852 363 852 z "},"ò":{"ha":833,"x_min":140,"x_max":692,"o":"m 692 454 l 692 241 q 615 61 692 136 q 428 -14 538 -14 l 404 -14 q 217 61 294 -14 q 140 243 140 136 l 140 454 q 217 636 140 562 q 404 710 294 710 l 428 710 q 615 635 538 710 q 692 454 692 560 m 578 235 l 578 458 q 533 565 578 521 q 424 608 489 608 l 408 608 q 298 565 343 608 q 253 458 253 521 l 253 236 q 298 129 253 174 q 408 85 343 85 l 424 85 q 533 129 489 85 q 578 235 578 172 m 539 781 l 415 781 l 204 986 l 363 986 l 539 781 z "},"ó":{"ha":833,"x_min":140,"x_max":692,"o":"m 692 454 l 692 241 q 615 61 692 136 q 428 -14 538 -14 l 404 -14 q 217 61 294 -14 q 140 243 140 136 l 140 454 q 217 636 140 562 q 404 710 294 710 l 428 710 q 615 635 538 710 q 692 454 692 560 m 578 235 l 578 458 q 533 565 578 521 q 424 608 489 608 l 408 608 q 298 565 343 608 q 253 458 253 521 l 253 236 q 298 129 253 174 q 408 85 343 85 l 424 85 q 533 129 489 85 q 578 235 578 172 m 418 781 l 294 781 l 471 986 l 629 986 l 418 781 z "},"ô":{"ha":833,"x_min":140,"x_max":692,"o":"m 692 454 l 692 241 q 615 61 692 136 q 428 -14 538 -14 l 404 -14 q 217 61 294 -14 q 140 243 140 136 l 140 454 q 217 636 140 562 q 404 710 294 710 l 428 710 q 615 635 538 710 q 692 454 692 560 m 578 235 l 578 458 q 533 565 578 521 q 424 608 489 608 l 408 608 q 298 565 343 608 q 253 458 253 521 l 253 236 q 298 129 253 174 q 408 85 343 85 l 424 85 q 533 129 489 85 q 578 235 578 172 m 315 782 l 215 782 l 363 986 l 468 986 l 618 782 l 517 782 l 414 886 l 315 782 z "},"õ":{"ha":833,"x_min":140,"x_max":692,"o":"m 692 454 l 692 241 q 615 61 692 136 q 428 -14 538 -14 l 404 -14 q 217 61 294 -14 q 140 243 140 136 l 140 454 q 217 636 140 562 q 404 710 294 710 l 428 710 q 615 635 538 710 q 692 454 692 560 m 578 235 l 578 458 q 533 565 578 521 q 424 608 489 608 l 408 608 q 298 565 343 608 q 253 458 253 521 l 253 236 q 298 129 253 174 q 408 85 343 85 l 424 85 q 533 129 489 85 q 578 235 578 172 m 200 800 q 241 906 200 857 q 335 954 282 954 q 425 924 370 954 q 497 893 481 893 q 523 910 513 893 q 532 946 532 928 l 632 946 q 591 840 632 889 q 507 791 551 791 q 408 822 464 791 q 336 852 353 852 q 297 800 304 852 l 200 800 z "},"ö":{"ha":833,"x_min":140,"x_max":692,"o":"m 692 454 l 692 241 q 615 61 692 136 q 428 -14 538 -14 l 404 -14 q 217 61 294 -14 q 140 243 140 136 l 140 454 q 217 636 140 562 q 404 710 294 710 l 428 710 q 615 635 538 710 q 692 454 692 560 m 578 235 l 578 458 q 533 565 578 521 q 424 608 489 608 l 408 608 q 298 565 343 608 q 253 458 253 521 l 253 236 q 298 129 253 174 q 408 85 343 85 l 424 85 q 533 129 489 85 q 578 235 578 172 m 237 848 l 237 972 l 361 972 l 361 848 l 237 848 m 472 848 l 472 972 l 596 972 l 596 848 l 472 848 z "},"÷":{"ha":833,"x_min":100,"x_max":732,"o":"m 100 464 l 732 464 l 732 353 l 100 353 l 100 464 m 347 119 l 347 257 l 488 257 l 488 119 l 347 119 m 347 562 l 347 700 l 488 700 l 488 562 l 347 562 z "},"ø":{"ha":833,"x_min":158,"x_max":675,"o":"m 675 484 l 675 211 q 603 51 675 115 q 418 -14 532 -14 q 292 12 344 -14 l 282 0 l 163 0 l 205 75 q 158 211 158 134 l 158 484 q 230 643 158 578 q 418 708 302 708 q 542 682 486 708 l 550 694 l 671 694 l 627 618 q 675 484 675 559 m 561 220 l 561 475 l 558 494 l 342 107 q 426 87 374 87 q 519 127 477 87 q 561 220 561 167 m 492 587 q 406 607 456 607 q 314 567 357 607 q 272 475 272 528 l 272 220 l 273 199 l 492 587 z "},"ù":{"ha":833,"x_min":142,"x_max":690,"o":"m 142 694 l 254 694 l 254 236 q 298 129 254 172 q 408 86 342 86 q 527 131 475 86 q 579 229 579 176 l 579 694 l 690 694 l 690 0 l 582 0 l 582 57 q 400 -14 511 -14 q 215 60 289 -14 q 142 240 142 134 l 142 694 m 541 781 l 416 781 l 205 986 l 364 986 l 541 781 z "},"ú":{"ha":833,"x_min":142,"x_max":690,"o":"m 142 694 l 254 694 l 254 236 q 298 129 254 172 q 408 86 342 86 q 527 131 475 86 q 579 229 579 176 l 579 694 l 690 694 l 690 0 l 582 0 l 582 57 q 400 -14 511 -14 q 215 60 289 -14 q 142 240 142 134 l 142 694 m 421 781 l 297 781 l 473 986 l 632 986 l 421 781 z "},"û":{"ha":833,"x_min":142,"x_max":690,"o":"m 142 694 l 254 694 l 254 236 q 298 129 254 172 q 408 86 342 86 q 527 131 475 86 q 579 229 579 176 l 579 694 l 690 694 l 690 0 l 582 0 l 582 57 q 400 -14 511 -14 q 215 60 289 -14 q 142 240 142 134 l 142 694 m 321 782 l 221 782 l 368 986 l 473 986 l 624 782 l 522 782 l 419 886 l 321 782 z "},"ü":{"ha":833,"x_min":142,"x_max":690,"o":"m 142 694 l 254 694 l 254 236 q 298 129 254 172 q 408 86 342 86 q 527 131 475 86 q 579 229 579 176 l 579 694 l 690 694 l 690 0 l 582 0 l 582 57 q 400 -14 511 -14 q 215 60 289 -14 q 142 240 142 134 l 142 694 m 243 848 l 243 972 l 367 972 l 367 848 l 243 848 m 478 848 l 478 972 l 602 972 l 602 848 l 478 848 z "},"ý":{"ha":833,"x_min":107,"x_max":726,"o":"m 227 694 l 418 164 l 607 694 l 726 694 l 370 -250 l 257 -250 l 355 22 l 107 694 l 227 694 m 429 781 l 306 781 l 482 986 l 640 986 l 429 781 z "},"þ":{"ha":833,"x_min":142,"x_max":692,"o":"m 142 -250 l 142 972 l 250 972 l 250 647 q 408 708 313 708 l 428 708 q 615 634 538 708 q 692 454 692 559 l 692 241 q 615 59 692 134 q 428 -16 538 -16 l 411 -16 q 249 50 318 -16 l 249 -250 l 142 -250 m 578 236 l 578 460 q 533 566 578 522 q 424 610 489 610 l 408 610 q 298 565 343 610 q 253 458 253 521 l 253 236 q 298 130 253 174 q 408 86 343 86 l 424 86 q 533 130 489 86 q 578 236 578 174 z "},"ÿ":{"ha":833,"x_min":107,"x_max":726,"o":"m 227 694 l 418 164 l 607 694 l 726 694 l 370 -250 l 257 -250 l 355 22 l 107 694 l 227 694 m 237 848 l 237 972 l 361 972 l 361 848 l 237 848 m 472 848 l 472 972 l 596 972 l 596 848 l 472 848 z "},"Ł":{"ha":833,"x_min":134,"x_max":699,"o":"m 335 110 l 699 110 l 699 0 l 216 0 l 216 353 l 134 307 l 134 437 l 216 484 l 216 972 l 335 972 l 335 550 l 541 665 l 538 533 l 335 418 l 335 110 z "},"ł":{"ha":833,"x_min":143,"x_max":690,"o":"m 357 872 l 180 872 l 180 972 l 468 972 l 468 604 l 567 660 l 567 542 l 468 486 l 468 100 l 690 100 l 690 0 l 143 0 l 143 100 l 357 100 l 357 424 l 277 379 l 277 498 l 357 543 l 357 872 z "},"Œ":{"ha":833,"x_min":94,"x_max":737,"o":"m 354 972 l 732 972 l 732 861 l 517 861 l 517 568 l 699 568 l 699 458 l 517 458 l 517 111 l 737 111 l 737 0 l 354 0 q 169 76 244 0 q 94 260 94 151 l 94 714 q 169 898 94 823 q 354 972 244 972 m 212 258 q 254 154 212 196 q 358 111 296 111 l 397 111 l 397 859 l 358 859 q 253 817 294 859 q 212 713 212 775 l 212 258 z "},"œ":{"ha":833,"x_min":89,"x_max":745,"o":"m 643 212 l 745 212 l 745 175 q 689 42 745 97 q 557 -14 633 -14 q 476 3 507 -14 q 415 57 446 20 q 354 3 385 20 q 275 -14 323 -14 q 144 42 200 -14 q 89 175 89 97 l 89 519 q 142 653 89 599 q 275 708 196 708 q 354 691 324 708 q 415 635 385 673 q 476 691 446 673 q 557 708 507 708 q 690 653 636 708 q 745 519 745 599 l 745 313 l 467 313 l 467 175 q 492 113 467 139 q 554 87 517 87 q 617 113 591 87 q 643 175 643 139 l 643 212 m 364 175 l 364 519 q 337 581 364 555 q 274 607 309 607 q 213 581 239 607 q 187 519 187 555 l 187 175 q 212 113 187 139 q 274 87 237 87 q 337 113 311 87 q 364 175 364 139 m 467 519 l 467 414 l 643 414 l 643 519 q 616 581 643 555 q 554 607 590 607 q 492 581 518 607 q 467 519 467 555 z "},"Š":{"ha":833,"x_min":140,"x_max":692,"o":"m 566 728 q 524 830 566 786 q 419 873 481 873 q 314 835 357 873 q 272 740 272 796 q 315 643 272 684 q 420 570 358 602 q 544 502 482 539 q 649 399 606 465 q 692 235 692 334 q 615 61 692 136 q 429 -14 538 -14 l 404 -14 q 217 61 294 -14 q 140 241 140 135 l 140 279 l 258 279 l 258 241 q 301 138 258 180 q 408 96 345 96 l 424 96 q 529 135 486 96 q 572 238 572 175 q 529 351 572 301 q 425 431 486 400 q 302 496 364 463 q 197 589 240 530 q 154 732 154 648 q 231 913 154 840 q 418 986 309 986 q 604 911 528 986 q 681 728 681 836 l 566 728 m 214 1264 l 314 1264 l 412 1160 l 515 1264 l 616 1264 l 467 1060 l 361 1060 l 214 1264 z "},"š":{"ha":833,"x_min":167,"x_max":665,"o":"m 215 986 l 315 986 l 414 882 l 517 986 l 618 986 l 468 782 l 363 782 l 215 986 m 665 496 l 550 496 q 517 574 550 541 q 439 608 484 608 l 412 608 q 340 584 371 608 q 309 523 309 559 q 345 460 309 486 q 434 415 382 433 q 537 374 486 397 q 626 303 589 351 q 663 180 663 256 q 593 45 663 104 q 432 -14 524 -14 l 401 -14 q 233 52 300 -14 q 167 203 167 117 l 167 220 l 278 220 l 278 207 q 316 122 278 158 q 406 86 354 86 l 431 86 q 514 116 479 86 q 549 187 549 145 q 512 257 549 229 q 422 303 475 285 q 317 345 370 322 q 229 410 265 367 q 192 515 192 453 q 256 654 192 600 q 412 708 319 708 l 439 708 q 604 640 543 708 q 665 496 665 572 z "},"Ÿ":{"ha":833,"x_min":103,"x_max":730,"o":"m 476 0 l 355 0 l 355 460 l 103 972 l 232 972 l 416 607 l 600 972 l 730 972 l 476 460 l 476 0 m 252 1126 l 252 1250 l 375 1250 l 375 1126 l 252 1126 m 486 1126 l 486 1250 l 610 1250 l 610 1126 l 486 1126 z "},"Ž":{"ha":833,"x_min":147,"x_max":685,"o":"m 684 110 l 684 0 l 147 0 l 147 117 l 546 863 l 168 863 l 168 972 l 685 972 l 685 856 l 285 110 l 684 110 m 214 1264 l 314 1264 l 412 1160 l 515 1264 l 616 1264 l 467 1060 l 361 1060 l 214 1264 z "},"ž":{"ha":833,"x_min":153,"x_max":679,"o":"m 235 986 l 335 986 l 433 882 l 536 986 l 637 986 l 488 782 l 382 782 l 235 986 m 679 100 l 679 0 l 153 0 l 153 104 l 543 595 l 172 595 l 172 694 l 673 694 l 673 587 l 285 100 l 679 100 z "},"ƒ":{"ha":833,"x_min":153,"x_max":681,"o":"m 205 596 l 205 694 l 363 694 l 363 794 q 419 930 363 875 q 545 986 475 986 q 681 943 616 986 l 618 861 q 552 885 583 885 q 496 860 521 885 q 471 799 471 835 l 471 694 l 647 694 l 647 596 l 471 596 l 471 -72 q 414 -208 471 -153 q 288 -264 358 -264 q 153 -221 217 -264 l 215 -138 q 279 -163 247 -163 q 337 -138 312 -163 q 363 -77 363 -113 l 363 596 l 205 596 z "},"ˆ":{"ha":833,"x_min":215,"x_max":618,"o":"m 315 782 l 215 782 l 363 986 l 468 986 l 618 782 l 517 782 l 414 886 l 315 782 z "},"ˇ":{"ha":833,"x_min":215,"x_max":618,"o":"m 215 986 l 315 986 l 414 882 l 517 986 l 618 986 l 468 782 l 363 782 l 215 986 z "},"˘":{"ha":833,"x_min":229,"x_max":603,"o":"m 229 972 l 334 972 q 352 919 334 942 q 395 896 371 896 l 439 896 q 481 919 464 896 q 498 972 498 942 l 603 972 q 553 847 603 899 q 437 796 504 796 l 395 796 q 278 847 327 796 q 229 972 229 899 z "},"˙":{"ha":833,"x_min":354,"x_max":478,"o":"m 354 848 l 354 972 l 478 972 l 478 848 l 354 848 z "},"˚":{"ha":833,"x_min":307,"x_max":526,"o":"m 338 797 q 323 813 338 797 q 307 876 307 829 q 338 954 307 922 q 415 986 370 986 q 494 954 461 986 q 526 876 526 922 q 494 797 526 829 q 415 765 461 765 q 338 797 370 765 m 386 906 q 381 900 386 906 q 375 877 375 895 q 386 848 375 859 q 415 836 397 836 q 445 848 433 836 q 457 878 457 860 q 445 907 457 895 q 415 918 433 918 q 386 906 397 918 z "},"˛":{"ha":833,"x_min":307,"x_max":525,"o":"m 525 -149 l 525 -250 l 437 -250 q 342 -213 378 -250 q 307 -121 307 -176 q 325 -59 307 -90 q 358 -12 342 -28 l 375 3 l 500 3 q 414 -121 414 -74 q 422 -140 414 -132 q 441 -149 431 -149 l 525 -149 z "},"˜":{"ha":833,"x_min":200,"x_max":632,"o":"m 200 800 q 241 906 200 857 q 335 954 282 954 q 425 924 370 954 q 497 893 481 893 q 523 910 513 893 q 532 946 532 928 l 632 946 q 591 840 632 889 q 507 791 551 791 q 408 822 464 791 q 336 852 353 852 q 297 800 304 852 l 200 800 z "},"˝":{"ha":833,"x_min":122,"x_max":711,"o":"m 245 781 l 122 781 l 298 986 l 457 986 l 245 781 m 500 781 l 376 781 l 553 986 l 711 986 l 500 781 z "},"–":{"ha":833,"x_min":153,"x_max":681,"o":"m 681 461 l 681 353 l 153 353 l 153 461 l 681 461 z "},"—":{"ha":833,"x_min":0,"x_max":833,"o":"m 833 461 l 833 353 l 0 353 l 0 461 l 833 461 z "},"‘":{"ha":833,"x_min":328,"x_max":505,"o":"m 505 972 l 456 675 l 328 675 l 428 972 l 505 972 z "},"’":{"ha":833,"x_min":328,"x_max":505,"o":"m 328 675 l 378 972 l 505 972 l 406 675 l 328 675 z "},"‚":{"ha":833,"x_min":328,"x_max":505,"o":"m 328 -161 l 378 136 l 505 136 l 406 -161 l 328 -161 z "},"“":{"ha":833,"x_min":222,"x_max":611,"o":"m 611 974 l 561 676 l 433 676 l 533 974 l 611 974 m 400 974 l 350 676 l 222 676 l 322 974 l 400 974 z "},"”":{"ha":833,"x_min":222,"x_max":611,"o":"m 222 676 l 272 974 l 400 974 l 300 676 l 222 676 m 433 676 l 484 974 l 611 974 l 511 676 l 433 676 z "},"„":{"ha":833,"x_min":222,"x_max":611,"o":"m 222 -161 l 272 136 l 400 136 l 300 -161 l 222 -161 m 433 -161 l 484 136 l 611 136 l 511 -161 l 433 -161 z "},"†":{"ha":833,"x_min":199,"x_max":635,"o":"m 635 694 l 635 587 l 472 587 l 472 -250 l 357 -250 l 357 587 l 199 587 l 199 694 l 357 694 l 357 972 l 472 972 l 472 694 l 635 694 z "},"‡":{"ha":833,"x_min":199,"x_max":635,"o":"m 635 109 l 635 0 l 472 0 l 472 -250 l 357 -250 l 357 0 l 199 0 l 199 109 l 357 109 l 357 587 l 199 587 l 199 694 l 357 694 l 357 972 l 472 972 l 472 694 l 635 694 l 635 587 l 472 587 l 472 109 l 635 109 z "},"•":{"ha":833,"x_min":207,"x_max":627,"o":"m 268 350 q 237 380 268 350 q 207 498 207 411 q 268 646 207 585 q 416 708 329 708 q 565 646 503 708 q 627 498 627 585 q 565 350 627 411 q 416 289 503 289 q 268 350 329 289 z "},"…":{"ha":833,"x_min":72,"x_max":761,"o":"m 72 0 l 72 136 l 208 136 l 208 0 l 72 0 m 349 0 l 349 136 l 485 136 l 485 0 l 349 0 m 625 0 l 625 136 l 761 136 l 761 0 l 625 0 z "},"‰":{"ha":833,"x_min":69,"x_max":764,"o":"m 390 840 l 390 714 q 344 611 390 653 q 235 570 298 570 l 225 570 q 116 612 163 570 q 69 714 69 654 l 69 840 q 115 944 69 901 q 225 986 161 986 l 235 986 q 344 944 298 986 q 390 840 390 901 m 302 714 l 302 840 q 281 889 302 869 q 229 909 260 909 q 178 889 199 909 q 157 840 157 869 l 157 714 q 178 665 157 685 q 230 644 200 644 q 281 665 260 644 q 302 714 302 685 m 390 257 l 390 131 q 344 28 390 70 q 235 -14 298 -14 l 225 -14 q 116 28 163 -14 q 69 131 69 71 l 69 257 q 115 360 69 318 q 225 403 161 403 l 235 403 q 344 360 298 403 q 390 257 390 318 m 302 131 l 302 257 q 281 306 302 286 q 229 326 260 326 q 178 306 199 326 q 157 257 157 286 l 157 131 q 178 81 157 102 q 230 61 200 61 q 281 81 260 61 q 302 131 302 102 m 764 257 l 764 131 q 718 28 764 70 q 608 -14 672 -14 l 599 -14 q 490 28 536 -14 q 443 131 443 71 l 443 257 q 489 360 443 318 q 599 403 534 403 l 608 403 q 718 360 672 403 q 764 257 764 318 m 676 131 l 676 257 q 655 306 676 286 q 603 326 633 326 q 551 306 572 326 q 530 257 530 286 l 530 131 q 552 81 530 102 q 604 61 574 61 q 655 81 633 61 q 676 131 676 102 m 69 476 l 764 694 l 764 618 l 69 397 l 69 476 z "},"‹":{"ha":833,"x_min":267,"x_max":567,"o":"m 567 184 l 436 184 l 267 404 l 436 625 l 566 625 l 395 404 l 567 184 z "},"›":{"ha":833,"x_min":267,"x_max":567,"o":"m 397 184 l 268 184 l 439 404 l 267 625 l 397 625 l 567 404 l 397 184 z "},"⁄":{"ha":833,"x_min":134,"x_max":700,"o":"m 134 0 l 627 972 l 700 972 l 208 0 l 134 0 z "},"€":{"ha":833,"x_min":119,"x_max":713,"o":"m 611 632 l 611 522 l 301 522 l 301 443 l 568 443 l 568 334 l 301 334 l 301 241 q 344 137 301 180 q 449 94 387 94 q 553 137 510 94 q 596 240 596 179 l 596 257 l 713 257 l 713 241 q 637 60 713 134 q 453 -14 561 -14 l 444 -14 q 260 61 336 -14 q 184 243 184 136 l 184 334 l 119 334 l 119 443 l 184 443 l 184 522 l 119 522 l 119 632 l 184 632 l 184 730 q 260 912 184 838 q 444 986 336 986 l 453 986 q 638 912 563 986 q 713 729 713 839 l 596 729 q 553 832 596 790 q 449 875 510 875 q 344 832 387 875 q 301 729 301 790 l 301 632 l 611 632 z "},"™":{"ha":833,"x_min":96,"x_max":737,"o":"m 96 903 l 96 974 l 367 974 l 367 903 l 269 903 l 269 507 l 192 507 l 192 903 l 96 903 m 737 974 l 737 507 l 660 507 l 660 786 l 667 832 l 602 699 l 541 699 l 472 832 l 481 785 l 481 507 l 404 507 l 404 974 l 481 974 l 571 783 l 660 974 l 737 974 z "},"−":{"ha":833,"x_min":109,"x_max":724,"o":"m 724 460 l 724 349 l 109 349 l 109 460 l 724 460 z "},"ﬁ":{"ha":833,"x_min":77,"x_max":757,"o":"m 293 0 l 184 0 l 184 595 l 77 595 l 77 694 l 184 694 l 184 793 q 241 929 184 873 q 369 985 297 985 q 504 942 441 985 l 440 859 q 332 871 371 908 q 293 798 293 833 l 293 694 l 657 694 l 657 102 l 757 102 l 757 0 l 452 0 l 452 102 l 547 102 l 547 595 l 293 595 l 293 0 m 539 847 l 539 972 l 667 972 l 667 847 l 539 847 z "},"ﬂ":{"ha":833,"x_min":75,"x_max":758,"o":"m 292 0 l 183 0 l 183 595 l 75 595 l 75 694 l 183 694 l 183 781 q 239 917 183 861 q 378 972 296 972 l 657 972 l 657 102 l 758 102 l 758 0 l 452 0 l 452 102 l 547 102 l 547 869 l 378 869 q 317 844 342 869 q 292 785 292 819 l 292 694 l 468 694 l 468 595 l 292 595 l 292 0 z "}}}
